<?xml version="1.0" encoding="utf-8"?>
<!-- Generator: Adobe Illustrator 28.3.0, SVG Export Plug-In . SVG Version: 6.00 Build 0)  -->
<svg version="1.1" id="Livello_1" xmlns="http://www.w3.org/2000/svg" xmlns:xlink="http://www.w3.org/1999/xlink" x="0px" y="0px"
	 viewBox="0 0 800 150" style="enable-background:new 0 0 800 150;" xml:space="preserve">
<style type="text/css">
	.st0{fill:#419AC7;}
	.st1{enable-background:new    ;}
	.st2{fill:#DBE81F;}
	.st3{fill:#FFFFFF;}
</style>
<rect class="st0" width="800" height="150"/>
<g>
	<g>
		<g class="st1">
			<path class="st2" d="M43.6,47.7v1.8c0,0.6,0.5,1.1,1.1,1.1h26.7c0.6,0,1.1,0.5,1.1,1.1v5c0,0.6-0.5,1.1-1.1,1.1l-35.6,0
				c-0.6,0-1.1-0.5-1.1-1.1v-27c0-0.6,0.5-1.1,1.1-1.1h35.6c0.6,0,1.1,0.5,1.1,1.1v5.1c0,0.6-0.5,1.1-1.2,1.1H44.7
				c-0.6,0-1.1,0.5-1.1,1.2v1.8c0,0.6,0.5,1.1,1.1,1.1h25.9c0.6,0,1.2,0.5,1.2,1.1v4.3c0,0.6-0.5,1.1-1.2,1.1H44.7
				C44.1,46.6,43.6,47.1,43.6,47.7z"/>
			<path class="st2" d="M87.1,51.4h22.6c0.6,0,1.1,0.5,1.1,1.2v4.2c0,0.6-0.5,1.1-1.1,1.1H78.2c-0.6,0-1.1-0.5-1.1-1.1v-27
				c0-0.6,0.5-1.1,1.1-1.1h6.7c0.6,0,1.1,0.5,1.1,1.1v20.5C86,50.9,86.5,51.4,87.1,51.4z"/>
			<path class="st2" d="M122.6,47.7v1.8c0,0.6,0.5,1.1,1.1,1.1h26.7c0.6,0,1.1,0.5,1.1,1.1v5c0,0.6-0.5,1.1-1.1,1.1l-35.6,0
				c-0.6,0-1.1-0.5-1.1-1.1v-27c0-0.6,0.5-1.1,1.1-1.1h35.6c0.6,0,1.1,0.5,1.1,1.1v5.1c0,0.6-0.5,1.1-1.2,1.1h-26.6
				c-0.6,0-1.1,0.5-1.1,1.2v1.8c0,0.6,0.5,1.1,1.1,1.1h25.9c0.6,0,1.2,0.5,1.2,1.1v4.3c0,0.6-0.5,1.1-1.2,1.1h-25.9
				C123.1,46.6,122.6,47.1,122.6,47.7z"/>
			<path class="st2" d="M188.2,48.2h6.7c0.7,0,1.2,0.5,1.1,1.2c-0.6,8.8-3.8,9.3-20.1,9.3c-19.6,0-20.3-0.8-20.3-15.4
				c0-14.6,0.8-15.4,20.3-15.4c16.3,0,19.5,0.5,20.1,9.3c0,0.7-0.5,1.3-1.1,1.3h-6.7c-0.6,0-1.1-0.5-1.1-1.2v-1
				c0-0.6-0.5-1.1-1.1-1.1h-20.3c-0.6,0-1.1,0.5-1.1,1.1v14c0,0.6,0.5,1.1,1.1,1.1h8.6c0.5,0,1,0,1.6,0c0.5,0,1.1,0,1.6,0h8.4
				c0.6,0,1.1-0.5,1.1-1.1v-1C187.1,48.7,187.6,48.2,188.2,48.2z"/>
			<path class="st2" d="M239,29.8v4.3c0,0.6-0.5,1.1-1.1,1.1H224c-0.6,0-1.1,0.5-1.1,1.1v20.5c0,0.6-0.5,1.1-1.1,1.1h-6.7
				c-0.6,0-1.1-0.5-1.1-1.1V36.3c0-0.6-0.5-1.1-1.1-1.1h-13.8c-0.6,0-1.1-0.5-1.1-1.1v-4.3c0-0.6,0.5-1.1,1.1-1.1h38.8
				C238.4,28.7,239,29.2,239,29.8z"/>
			<path class="st2" d="M281.3,55.5v1.3c0,0.6-0.5,1.1-1.1,1.1h-6.6c-0.6,0-1.1-0.5-1.1-1.1v-4.7c0-0.6-0.5-1.1-1.2-1.1h-19.4
				c-0.6,0-1.1,0.5-1.1,1.1v4.7c0,0.6-0.5,1.1-1.1,1.1H243c-0.6,0-1.1-0.5-1.1-1.1v-27c0-0.6,0.5-1.1,1.1-1.1h25.6
				c11.4,0,12.8,1,12.8,11.1c0,3.3-0.6,5-2,6.1c-0.6,0.5-0.5,1.3,0,1.8C280.8,48.6,281.3,50.2,281.3,55.5z M272.4,42.5v-5.4
				c0-0.6-0.5-1.1-1.1-1.1h-19.4c-0.6,0-1.1,0.5-1.1,1.1v5.4c0,0.6,0.5,1.1,1.1,1.1h19.4C271.9,43.6,272.4,43.1,272.4,42.5z"/>
			<path class="st2" d="M326,43.3c0,14.6-0.8,15.4-20.3,15.4c-19.6,0-20.3-0.8-20.3-15.4c0-14.6,0.8-15.4,20.3-15.4
				C325.2,27.9,326,28.7,326,43.3z M317.1,50.3v-14c0-0.6-0.5-1.1-1.1-1.1h-20.5c-0.6,0-1.1,0.5-1.1,1.1v14c0,0.6,0.5,1.1,1.1,1.1
				H316C316.6,51.4,317.1,50.9,317.1,50.3z"/>
		</g>
	</g>
	<g>
		<g class="st1">
			<path class="st3" d="M47.4,112.5h2.3c2.1-0.1,3.8-0.2,5.1-0.5c1.3-0.3,2.4-0.8,3.1-1.4c0.5-0.4,1-0.9,1.3-1.3
				c0.3-0.4,0.6-1,0.7-1.7c0.2-0.7,0.3-1.6,0.3-2.7c0.1-1.1,0.1-2.6,0.1-4.4V78.6H56c-4.2,0-7.2,0.9-8.9,2.8c-0.4,0.4-0.8,0.9-1,1.3
				c-0.2,0.4-0.5,0.9-0.6,1.6c-0.2,0.6-0.3,1.4-0.3,2.2c-0.1,0.9-0.1,1.9-0.2,3.2H34.4V68.1h71.4v21.6H95.2
				c-0.1-2.5-0.2-4.3-0.5-5.4c-0.3-1.1-0.8-2.1-1.7-2.9c-1.7-1.9-4.7-2.8-8.9-2.8h-4.4v21.8c0,1.4,0,2.5,0,3.3s0,1.4,0.1,1.9
				c0.1,0.5,0.1,0.9,0.2,1.2c0.1,0.3,0.2,0.7,0.3,1.1c0.5,1.5,1.6,2.7,3.1,3.3c1.5,0.7,3.9,1.1,7,1.2h2.3v10.7H47.4V112.5z"/>
			<path class="st3" d="M111.9,112.5h2c2.1-0.1,3.9-0.3,5.1-0.6c1.3-0.3,2.3-0.7,3.1-1.4c0.5-0.4,1-0.9,1.3-1.3
				c0.3-0.4,0.6-1,0.7-1.7c0.2-0.7,0.3-1.6,0.3-2.7c0.1-1.1,0.1-2.6,0.1-4.4v-9.7c0-1.8,0-3.3-0.1-4.4c-0.1-1.1-0.2-2-0.3-2.7
				c-0.2-0.7-0.4-1.2-0.7-1.7c-0.3-0.4-0.8-0.8-1.3-1.3c-0.8-0.7-1.9-1.1-3.1-1.4c-1.3-0.3-3-0.5-5.1-0.5l-2-0.1V68.1h44.5v10.6
				l-1.8,0.1c-2.2,0.1-3.9,0.3-5.2,0.6c-1.2,0.3-2.3,0.7-3.1,1.4c-0.6,0.4-1,0.9-1.3,1.3c-0.3,0.4-0.6,1-0.7,1.7s-0.3,1.6-0.3,2.7
				c-0.1,1.1-0.1,2.6-0.1,4.4v9.7c0,1.8,0,3.3,0.1,4.4c0.1,1.1,0.2,2,0.3,2.7c0.2,0.7,0.4,1.3,0.7,1.7c0.3,0.4,0.8,0.8,1.3,1.3
				c0.8,0.7,1.9,1.1,3.1,1.4c1.2,0.3,3,0.5,5.2,0.6h1.8v10.7h-44.5V112.5z"/>
			<path class="st3" d="M233.8,102.2c-0.9,3.6-2.2,6.7-3.8,9.3c-1.6,2.6-3.8,4.9-6.5,6.9c-5.9,4.5-14,6.8-24.3,6.8
				c-5.5,0-10.5-0.7-15-2.1c-4.5-1.4-8.3-3.4-11.5-6c-3.2-2.6-5.6-5.7-7.4-9.3c-1.7-3.6-2.6-7.7-2.6-12.1c0-4.7,1-9.1,3-13
				c2-4,4.8-7.2,8.3-9.7c3-2.1,6.6-3.7,10.6-4.9c4-1.2,8.1-1.8,12.3-1.8c2.8,0,5.7,0.3,8.8,0.9s6.1,1.4,9,2.5c1.5,0.6,2.7,1,3.3,1.2
				c0.7,0.2,1.4,0.2,2,0.2c1.9,0,3-1,3.3-2.9h10.3v21.6h-10.3c-0.6-2.1-1.4-3.9-2.4-5.4c-1-1.4-2.3-2.8-4-4
				c-1.7-1.2-3.7-2.2-6.1-2.8c-2.3-0.7-4.7-1-7.1-1c-2.8,0-5.3,0.5-7.8,1.4c-2.4,1-4.5,2.3-6.3,4c-1.8,1.7-3.2,3.6-4.2,5.9
				c-1,2.3-1.5,4.7-1.5,7.3c0,2.8,0.5,5.4,1.6,7.8c1.1,2.4,2.6,4.5,4.5,6.3s4.1,3.2,6.7,4.2c2.6,1,5.3,1.5,8.3,1.5
				c8.8,0,15.2-4.2,19.3-12.6H233.8z"/>
			<path class="st3" d="M236.4,98.1h28.2v10.1h-28.2V98.1z"/>
			<path class="st3" d="M279.8,112.5h2.3c2.1-0.1,3.8-0.2,5.1-0.5c1.3-0.3,2.4-0.8,3.1-1.4c0.5-0.4,1-0.9,1.3-1.3
				c0.3-0.4,0.6-1,0.7-1.7c0.2-0.7,0.3-1.6,0.3-2.7c0.1-1.1,0.1-2.6,0.1-4.4V78.6h-4.4c-4.2,0-7.2,0.9-8.9,2.8
				c-0.4,0.4-0.8,0.9-1,1.3c-0.2,0.4-0.5,0.9-0.6,1.6c-0.2,0.6-0.3,1.4-0.3,2.2c-0.1,0.9-0.1,1.9-0.2,3.2h-10.6V68.1h71.4v21.6
				h-10.6c-0.1-2.5-0.2-4.3-0.5-5.4c-0.3-1.1-0.8-2.1-1.7-2.9c-1.7-1.9-4.7-2.8-8.9-2.8h-4.4v21.8c0,1.4,0,2.5,0,3.3s0,1.4,0.1,1.9
				c0.1,0.5,0.1,0.9,0.2,1.2c0.1,0.3,0.2,0.7,0.3,1.1c0.5,1.5,1.6,2.7,3.1,3.3c1.5,0.7,3.9,1.1,7,1.2h2.3v10.7h-45.4V112.5z"/>
			<path class="st3" d="M334.2,112.5c2-0.1,3.6-0.3,5-0.6c1.3-0.3,2.6-0.8,3.6-1.5c1.1-0.7,2.1-1.7,3.1-2.9c1-1.2,2.1-2.8,3.3-4.8
				l20.6-34.6H386l20.6,34.1c1.1,1.9,2.1,3.4,3.1,4.7c1,1.3,2,2.3,3.1,3.1c1,0.8,2.2,1.4,3.4,1.8c1.2,0.4,2.7,0.6,4.3,0.7v10.7
				h-42.9v-10.7c3.7,0,6.2-0.2,7.6-0.7c1.4-0.5,2.1-1.4,2.1-2.6c0-0.4-0.1-0.9-0.3-1.5c-0.2-0.5-0.6-1.3-1-2.1h-25.8
				c-0.6,0.7-0.9,1.3-1.2,1.8c-0.2,0.5-0.3,1-0.3,1.4c0,1.8,1.2,2.9,3.6,3.4c0.2,0.1,0.5,0.1,0.7,0.1c0.2,0,0.6,0.1,1,0.1
				c0.4,0,1,0.1,1.7,0.1c0.7,0,1.7,0.1,2.8,0.1v10.7h-34.4V112.5z M380.6,96.6l-7.8-12.6l-7.4,12.6H380.6z"/>
			<path class="st3" d="M491.7,102.2c-0.9,3.6-2.2,6.7-3.8,9.3c-1.6,2.6-3.8,4.9-6.5,6.9c-5.9,4.5-14,6.8-24.3,6.8
				c-5.5,0-10.5-0.7-15-2.1c-4.5-1.4-8.3-3.4-11.5-6c-3.2-2.6-5.6-5.7-7.4-9.3c-1.7-3.6-2.6-7.7-2.6-12.1c0-4.7,1-9.1,3-13
				s4.8-7.2,8.3-9.7c3-2.1,6.6-3.7,10.6-4.9c4-1.2,8.1-1.8,12.3-1.8c2.8,0,5.7,0.3,8.8,0.9s6.1,1.4,9,2.5c1.5,0.6,2.7,1,3.3,1.2
				s1.4,0.2,2,0.2c1.9,0,3-1,3.3-2.9h10.3v21.6h-10.3c-0.6-2.1-1.4-3.9-2.4-5.4c-1-1.4-2.3-2.8-4-4c-1.7-1.2-3.7-2.2-6.1-2.8
				c-2.3-0.7-4.7-1-7.1-1c-2.8,0-5.3,0.5-7.8,1.4c-2.4,1-4.5,2.3-6.3,4c-1.8,1.7-3.2,3.6-4.2,5.9c-1,2.3-1.5,4.7-1.5,7.3
				c0,2.8,0.5,5.4,1.6,7.8c1.1,2.4,2.6,4.5,4.5,6.3s4.1,3.2,6.7,4.2c2.6,1,5.3,1.5,8.3,1.5c8.8,0,15.2-4.2,19.3-12.6H491.7z"/>
			<path class="st3" d="M494.3,98.1h28.2v10.1h-28.2V98.1z"/>
			<path class="st3" d="M537.7,112.5h2.3c2.1-0.1,3.8-0.2,5.1-0.5c1.3-0.3,2.4-0.8,3.1-1.4c0.5-0.4,1-0.9,1.3-1.3
				c0.3-0.4,0.6-1,0.7-1.7c0.2-0.7,0.3-1.6,0.3-2.7c0.1-1.1,0.1-2.6,0.1-4.4V78.6h-4.4c-4.2,0-7.2,0.9-8.9,2.8
				c-0.4,0.4-0.8,0.9-1,1.3c-0.2,0.4-0.5,0.9-0.6,1.6c-0.2,0.6-0.3,1.4-0.3,2.2c-0.1,0.9-0.1,1.9-0.2,3.2h-10.6V68.1H596v21.6h-10.6
				c-0.1-2.5-0.2-4.3-0.5-5.4c-0.3-1.1-0.8-2.1-1.7-2.9c-1.7-1.9-4.7-2.8-8.9-2.8H570v21.8c0,1.4,0,2.5,0,3.3s0,1.4,0.1,1.9
				c0.1,0.5,0.1,0.9,0.2,1.2c0.1,0.3,0.2,0.7,0.3,1.1c0.5,1.5,1.6,2.7,3.1,3.3c1.5,0.7,3.9,1.1,7,1.2h2.3v10.7h-45.4V112.5z"/>
			<path class="st3" d="M642,65.8c6.2,0,11.9,0.7,17.1,2.2c5.1,1.5,9.6,3.5,13.2,6.2c3.7,2.7,6.5,5.9,8.5,9.6c2,3.7,3,7.9,3,12.5
				c0,2.1-0.3,4.2-0.8,6.2c-0.6,2-1.3,4-2.4,5.9c-1,1.9-2.2,3.6-3.7,5.2c-1.4,1.6-3,3-4.8,4.3c-3.7,2.5-8.1,4.4-13,5.7
				c-4.9,1.3-10.4,1.9-16.3,1.9c-5.9,0-11.5-0.6-16.5-1.9c-5.1-1.3-9.6-3.1-13.5-5.6c-1.9-1.2-3.6-2.6-5.2-4.3
				c-1.5-1.7-2.8-3.4-3.9-5.4c-1.1-1.9-1.9-3.9-2.5-6.1c-0.6-2.1-0.9-4.3-0.9-6.6c0-2.1,0.3-4.3,0.8-6.4c0.5-2.1,1.3-4.1,2.4-6
				c1-1.9,2.2-3.7,3.7-5.3s3.1-3,4.9-4.3c3.9-2.5,8.3-4.5,13.5-5.8C630.7,66.5,636.2,65.8,642,65.8z M642.4,75.8
				c-3,0-5.7,0.5-8.3,1.5c-2.6,1-4.8,2.4-6.6,4.2c-1.9,1.8-3.3,3.9-4.4,6.3c-1,2.4-1.6,5.1-1.6,7.9c0,2.8,0.5,5.4,1.6,7.8
				c1.1,2.4,2.5,4.5,4.4,6.3c1.9,1.8,4.1,3.2,6.6,4.2c2.6,1,5.3,1.5,8.3,1.5c2.8,0,5.4-0.5,7.8-1.5c2.4-1,4.5-2.4,6.4-4.2
				c1.8-1.8,3.2-3.8,4.3-6.2c1-2.4,1.6-4.9,1.6-7.7c0-2.9-0.5-5.5-1.5-8c-1-2.4-2.4-4.6-4.3-6.4c-1.8-1.8-4-3.2-6.4-4.3
				C647.9,76.3,645.2,75.8,642.4,75.8z"/>
			<path class="st3" d="M689.4,112.5h2.2c2.1-0.1,3.8-0.2,5.1-0.5c1.3-0.3,2.4-0.8,3.2-1.4c0.5-0.4,1-0.9,1.3-1.3
				c0.3-0.4,0.6-1,0.7-1.7c0.2-0.7,0.3-1.6,0.3-2.7c0.1-1.1,0.1-2.6,0.1-4.4v-9.7c0-1.8,0-3.3-0.1-4.4c-0.1-1.1-0.2-2-0.3-2.7
				s-0.4-1.2-0.7-1.7c-0.3-0.4-0.8-0.8-1.3-1.3c-0.8-0.7-1.9-1.1-3.2-1.4c-1.3-0.3-3-0.5-5.1-0.5l-2.2-0.1V68.1h73.2v21.2H752
				c-0.1-2.1-0.4-3.8-0.8-5c-0.4-1.3-1.1-2.4-1.9-3.3c-0.8-0.9-1.9-1.5-3.1-1.8c-1.2-0.3-3.2-0.5-6-0.5h-18.7v11.8h2.6
				c1.3,0,2.3,0,3.1,0c0.8,0,1.5-0.1,2-0.2c0.5-0.1,1-0.2,1.4-0.4s0.8-0.4,1.3-0.7c0.9-0.6,1.5-1.3,1.8-2.1c0.3-0.8,0.5-2,0.6-3.7
				H745v24.1h-10.7c-0.2-2.8-1.1-4.7-2.7-5.6c-0.7-0.4-1.6-0.7-2.6-0.9c-1-0.2-2.5-0.2-4.5-0.2h-3v11.7h18.3c1.4,0,2.7,0,3.7-0.1
				c1-0.1,1.9-0.2,2.6-0.5c0.7-0.2,1.3-0.5,1.9-0.9c0.5-0.4,1-0.9,1.5-1.5c0.8-1,1.4-2.1,1.8-3.2c0.4-1.2,0.6-2.8,0.7-5h10.5v21.8
				h-73.2V112.5z"/>
		</g>
	</g>
</g>
</svg>
