<?xml version="1.0" encoding="UTF-8"?>
<svg id="Livello_1" data-name="Livello 1" xmlns="http://www.w3.org/2000/svg" xmlns:xlink="http://www.w3.org/1999/xlink" version="1.1" viewBox="0 0 623.6 141.7">
  <defs>
    <style>
      .cls-1 {
        fill: #273773;
      }

      .cls-1, .cls-2, .cls-3 {
        stroke-width: 0px;
      }

      .cls-2 {
        fill: url(#Sfumatura_senza_nome_49);
      }

      .cls-3 {
        fill: #fff;
      }
    </style>
    <linearGradient id="Sfumatura_senza_nome_49" data-name="Sfumatura senza nome 49" x1="23.1" y1="70.9" x2="610.4" y2="70.9" gradientUnits="userSpaceOnUse">
      <stop offset="0" stop-color="#273773"/>
      <stop offset=".2" stop-color="#273773"/>
      <stop offset=".3" stop-color="#642b5c"/>
      <stop offset="1" stop-color="#841b5e"/>
    </linearGradient>
  </defs>
  <g>
    <path class="cls-1" d="M33.1,37.5l-8.8,49.8h-11l8.8-49.8h11Z"/>
    <path class="cls-1" d="M67.6,37.5l-8.8,49.8h-10.9l-3-29.3-5.2,29.3h-10.2l8.8-49.8h11.3l2.7,28.1,5-28.1h10.2Z"/>
    <path class="cls-1" d="M86,48.3l-6.9,39h-11l6.9-39h-8.1l1.9-10.8h27.3l-1.9,10.8h-8.1Z"/>
    <path class="cls-1" d="M113.4,77l-1.8,10.2h-23.3l8.8-49.8h23.3l-1.8,10.2h-12.3l-1.7,9.5h10l-1.7,9.5h-10l-1.8,10.4h12.3Z"/>
    <path class="cls-1" d="M115.4,87.3l8.8-49.8h13.5c9.2,0,12.9,5.2,11,15.7-1.2,6.5-3.6,11.2-7.2,13.8l2.6,20.4h-11.7l-1.7-17.4h-1.2l-3.1,17.4h-11ZM133,47.6l-2.2,12.7h1.5c1.4,0,2.5-.5,3.3-1.5.8-1,1.4-2.7,1.8-5,.4-2.2.4-3.8,0-4.8-.4-1-1.3-1.5-2.6-1.5h-1.7Z"/>
    <path class="cls-1" d="M160.5,87.3l.3-10.4h-7.6l-3.3,10.4h-10.7l16.8-49.8h16l-.7,49.8h-10.9ZM161.7,50.1l-5.3,16.7h4.8l.5-16.7Z"/>
    <path class="cls-1" d="M199.9,48.3c-2.7,0-4.8.8-6.5,2.9-1.7,2.1-3,5.9-4,11.5-1,5.5-1.1,9.3-.3,11.5.8,2.1,2.6,3.2,5.4,3.2s4.3-.5,6.4-1.5l-1.8,10.3c-2,1.3-5,1.9-8.8,1.9-5.9,0-9.9-1.9-11.9-5.8s-2.2-10.1-.7-18.9c1.7-9.4,4.2-16,7.7-20,3.4-4,8.3-5.9,14.6-5.9"/>
    <path class="cls-1" d="M224.4,48.3l-6.9,39h-11l6.9-39h-13.5s0-10.9,0-10.9h34.5s-1.9,10.9-1.9,10.9h-8.1Z"/>
    <path class="cls-1" d="M246.7,37.5l-8.8,49.8h-11l8.8-49.8h11Z"/>
    <path class="cls-1" d="M277.6,37.5l-17,49.8h-14.7l.5-49.8h11.9l-1.8,33,10-33h11.2Z"/>
    <path class="cls-1" d="M293.7,77l-1.8,10.2h-23.3l8.8-49.8h23.3l-1.8,10.2h-12.3l-1.7,9.5h10l-1.7,9.5h-10l-1.8,10.4h12.3Z"/>
  </g>
  <path class="cls-2" d="M316.8,128.7l-12-96.1H23.1l3.5-19.6h295.9l4.3,55,20.9-55h19.4l-50.2,115.7ZM367.2,13l-12.3,76.7h16.6l12.3-76.7h-16.6ZM449.3,13h0c0,0-38.5,0-38.5,0-6.4,0-12.2,2.3-17.4,6.8-5.2,4.6-8.3,10.1-9.4,16.6-1,6.5.3,12,4.1,16.5,3.8,4.6,8.8,6.8,15.2,6.8h12.2c1.8,0,3.2.6,4.2,1.9,1.1,1.3,1.4,2.8,1.2,4.6-.3,1.8-1.2,3.4-2.6,4.6-1.5,1.3-3.1,1.9-4.8,1.9h-35l-2.7,16.8h34.9c0,0,0,0,0,0,6.4,0,12.1-2.3,17.4-6.8,5.2-4.6,8.3-10.1,9.4-16.6,1-6.5-.3-12-4.1-16.5-3.8-4.6-8.9-6.8-15.4-6.8h-12c-1.8,0-3.2-.6-4.2-1.9-1-1.3-1.4-2.8-1.1-4.6.3-1.8,1.2-3.4,2.6-4.6,1.4-1.3,3-1.9,4.8-1.9h38.6l-9.6,59.8h16.6l12.3-76.7h-16.6ZM539.4,51.5c0,7-1.7,13.4-5.1,19.2-3.4,5.9-8,10.5-13.8,14-5.8,3.4-12.1,5.2-19,5.2s-13.2-1.7-18.9-5.2c-5.8-3.4-10.4-8.1-13.7-14-3.4-5.9-5.1-12.3-5-19.2,0-7,1.7-13.4,5.1-19.2,3.4-5.9,8-10.5,13.8-14,5.8-3.4,12.1-5.2,19-5.2s13.2,1.7,18.9,5.2c5.8,3.4,10.4,8.1,13.7,14,3.4,5.9,5.1,12.3,5,19.2ZM522.8,51.5c0-5.9-2.1-11-6.2-15.2-4.1-4.2-9.1-6.3-15-6.3s-10.8,2.1-15,6.3c-4.1,4.2-6.2,9.3-6.2,15.2,0,5.9,2,11,6.2,15.2,4.1,4.2,9.1,6.3,14.9,6.3s10.8-2.1,15-6.3c4.2-4.2,6.3-9.3,6.3-15.2ZM593.7,13l-6.1,38.4-36.9-38.4-12.3,76.7h16.6l6-37.6,37,37.2,12.2-76.2h-16.6Z"/>
  <g>
    <path class="cls-3" d="M55,16.2l-3.9,12.5h-4.3l-3.7-12.5h3.9l2.1,7.6h0l2-7.6h4Z"/>
    <path class="cls-3" d="M58.7,16.2v2.4h-3.5v-2.4h3.5ZM55.2,28.7v-9.1h3.5v9.1h-3.5Z"/>
    <path class="cls-3" d="M70.1,24.9h-6.7c0,.5.2,1,.5,1.3s.7.5,1.3.5,1.2-.2,1.5-.6h3.2c-.3.9-.9,1.7-1.8,2.1s-1.8.7-2.9.7-2.7-.4-3.7-1.3c-1-.8-1.4-2-1.4-3.5s.4-2.5,1.3-3.4c.9-.9,2-1.4,3.5-1.4,3.5,0,5.2,1.9,5.2,5.6ZM63.4,23.1h3.3c0-.4-.1-.8-.4-1.1-.3-.3-.7-.4-1.1-.4-1,0-1.6.5-1.8,1.5Z"/>
    <path class="cls-3" d="M85.8,19.6l-2.9,9.1h-3.6l-1.3-5.6h0l-1.4,5.6h-3.6l-2.8-9.1h3.6l1.4,5.6h0l1.2-5.6h3.2l1.2,5.6h0l1.3-5.6h3.6Z"/>
    <path class="cls-3" d="M86.3,25.5v-2.9h5.5v2.9h-5.5Z"/>
    <path class="cls-3" d="M93.4,28.7v-12.5h5.5l1.8,7.4h0l1.8-7.4h5.5v12.5h-3.6v-8h0l-2.2,8h-2.9l-2.2-8h0v8h-3.6Z"/>
    <path class="cls-3" d="M118.7,22.9v3.7c0,1,.1,1.6.4,2h-3.5c-.1-.3-.1-.6-.1-.9h0c-.7.7-1.6,1.1-2.9,1.1s-1.7-.2-2.3-.7c-.6-.5-.9-1.1-.9-2.1s0-.9.3-1.2c.2-.4.4-.6.7-.8.3-.2.6-.4,1-.5.4-.1.8-.2,1.1-.3s.7-.1,1.1-.2c.5,0,.8-.1,1-.1.2,0,.3,0,.5-.1.1,0,.2-.1.3-.2,0-.1.1-.3.1-.4,0-.3-.1-.5-.3-.6-.2-.1-.5-.2-.8-.2-.5,0-.8,0-1,.3-.2.2-.3.4-.3.6h-3.2c0-.5.1-.9.3-1.3.2-.4.4-.7.7-.9.3-.2.7-.4,1.1-.5.4-.1.8-.2,1.2-.3.4,0,.8,0,1.3,0s1.1,0,1.6.1c.5,0,.9.2,1.1.3.3.1.6.3.8.5s.4.4.5.6c0,.2.2.4.2.7,0,.3,0,.5,0,.7,0,.2,0,.4,0,.8ZM115.3,25.5v-.8c-.2.1-.7.3-1.4.4-.4.1-.7.2-.9.4-.2.1-.3.3-.3.6s.1.4.3.6c.2.2.5.3.8.3s.7-.1,1-.4.4-.6.4-1.1Z"/>
    <path class="cls-3" d="M128.8,22.3h-3.2c0-.3-.1-.5-.4-.7-.2-.2-.5-.3-.8-.3-.7,0-1.1.2-1.1.7s.1.4.4.5c.2,0,.6.2,1.4.3.7.1,1.3.3,1.7.4,1.5.5,2.2,1.3,2.2,2.5s-.1,1.1-.4,1.6c-.3.4-.6.8-1.1,1s-1,.4-1.5.5c-.5,0-1.1.1-1.7.1s-1.5,0-2.1-.3c-.6-.2-1.2-.5-1.7-1.1s-.7-1.1-.7-1.9h3.3c0,.3.2.6.4.8.2.2.5.3.9.3s.5,0,.8-.2c.3-.1.4-.3.4-.5s-.1-.5-.4-.6c-.2-.1-.8-.2-1.6-.4-1.3-.2-2.3-.6-2.9-1-.6-.5-.9-1.1-.9-1.9s.1-1,.4-1.4c.3-.4.6-.7,1.1-.9.4-.2.9-.3,1.4-.4.5,0,1-.1,1.5-.1s1,0,1.5.1c.5,0,.9.2,1.4.4s.8.5,1.1.9c.3.4.4.9.4,1.4Z"/>
    <path class="cls-3" d="M134.4,16.8v2.8h1.9v2.1h-1.9v3.2c0,.4,0,.8.2.9.1.2.4.3.9.3s.5,0,.8,0v2.6c-.2,0-.6,0-1.1,0s-.9,0-1.1,0c-.4,0-.8,0-1.1,0s-.6-.2-1-.3c-.3-.2-.6-.4-.8-.8-.2-.4-.3-.9-.3-1.5v-4.4h-1.5v-2.1h1.5v-2.8h3.5Z"/>
    <path class="cls-3" d="M146.8,24.9h-6.7c0,.5.2,1,.5,1.3s.7.5,1.3.5,1.2-.2,1.5-.6h3.2c-.3.9-.9,1.7-1.8,2.1s-1.8.7-2.9.7-2.7-.4-3.7-1.3c-1-.8-1.4-2-1.4-3.5s.4-2.5,1.3-3.4c.9-.9,2-1.4,3.5-1.4,3.5,0,5.2,1.9,5.2,5.6ZM140.1,23.1h3.3c0-.4-.1-.8-.4-1.1-.3-.3-.7-.4-1.1-.4-1,0-1.6.5-1.8,1.5Z"/>
    <path class="cls-3" d="M148.1,28.7v-9.1h3.3v1.5h0c.3-.6.6-1,1-1.3.4-.3.9-.4,1.5-.4s.6,0,1,.1v3.1c-.4-.2-.9-.2-1.4-.2-.7,0-1.2.2-1.6.7-.3.4-.5,1.1-.5,2.1v3.6h-3.5Z"/>
    <path class="cls-3" d="M157,22.4c-.5-.5-.7-1-.7-1.7s.2-1.2.7-1.7,1-.7,1.7-.7,1.2.2,1.7.7.7,1,.7,1.7-.2,1.2-.7,1.7c-.5.5-1,.7-1.7.7s-1.2-.2-1.7-.7ZM157.6,19.6c-.3.3-.5.7-.5,1.2s.2.8.5,1.2.7.5,1.1.5.8-.2,1.1-.5.5-.7.5-1.2-.2-.8-.5-1.2c-.3-.3-.7-.5-1.1-.5s-.8.2-1.1.5ZM157.8,22v-2.4h.9c.4,0,.6,0,.8.2.2.1.3.3.3.6,0,.4-.2.6-.6.7l.5,1h-.6l-.5-1h-.2v1h-.6ZM158.3,20v.6h.5c.2,0,.3,0,.3-.3s-.2-.3-.5-.3h-.4Z"/>
  </g>
</svg>