<?xml version="1.0" encoding="utf-8"?>
<!-- Generator: Adobe Illustrator 28.3.0, SVG Export Plug-In . SVG Version: 6.00 Build 0)  -->
<svg version="1.1" id="Livello_2" xmlns="http://www.w3.org/2000/svg" xmlns:xlink="http://www.w3.org/1999/xlink" x="0px" y="0px"
	 viewBox="0 0 500.1 188.4" style="enable-background:new 0 0 500.1 188.4;" xml:space="preserve">
<style type="text/css">
	.st0{fill:#EFCE33;}
	.st1{fill:#FFFFFF;}
	.st2{fill:#C61C24;}
</style>
<g>
	<g>
		<path class="st0" d="M250.2,186.2c-21.6,0-43.4-1.9-64.8-5.6c-5.6-1-11.2-1.9-16.8-2.9c-22.1-3.9-41.9-17.2-54.3-36.4
			c-3.8-5.9-7.6-11.8-11.4-17.7l-0.4-0.6l0.6-58.4l0.4-0.5c4.1-6,8.1-12.1,12.2-18.2c12.5-18.7,32.1-31.6,53.9-35.3
			c5.9-1,11.7-2,17.6-3C207.9,4,229,2.2,250,2.2c21.6,0,43.4,1.9,64.8,5.6c5.6,1,11.2,1.9,16.8,2.9c22.1,3.9,41.9,17.2,54.3,36.4
			c3.8,5.9,7.6,11.8,11.4,17.7l0.4,0.6l-0.6,58.4l-0.4,0.5c-4.1,6-8.1,12.1-12.2,18.2c-12.5,18.7-32.1,31.6-53.9,35.3
			c-5.9,1-11.7,2-17.6,3C292.3,184.4,271.1,186.2,250.2,186.2C250.2,186.2,250.2,186.2,250.2,186.2z"/>
	</g>
	<g>
		<path class="st1" d="M250,4.4c21.5,0,43.1,1.9,64.4,5.6c5.6,1,11.2,1.9,16.8,2.9c21.7,3.8,40.8,16.8,52.8,35.4
			c3.8,5.9,7.6,11.8,11.4,17.7c-0.2,19-0.4,38.1-0.6,57.1c-4.1,6-8.1,12.1-12.2,18.2c-12.1,18.1-31.1,30.8-52.5,34.4
			c-5.9,1-11.7,2-17.6,3c-20.7,3.5-41.6,5.2-62.5,5.2c-21.5,0-43.1-1.9-64.4-5.6c-5.6-1-11.2-1.9-16.8-2.9
			c-21.7-3.8-40.8-16.8-52.8-35.4c-3.8-5.9-7.6-11.8-11.4-17.7c0.2-19,0.4-38.1,0.6-57.1c4.1-6,8.1-12.1,12.2-18.2
			c12.1-18.1,31.1-30.8,52.5-34.4c5.9-1,11.7-2,17.6-3C208.2,6.1,229.1,4.4,250,4.4 M250,0c-21.1,0-42.4,1.8-63.2,5.3
			c-5.9,1-11.7,2-17.6,3c-22.4,3.8-42.5,17-55.4,36.3c-4.1,6.2-8.2,12.3-12.2,18.2l-0.7,1.1l0,1.3l-0.1,12.5l-0.4,44.6l0,1.3
			l0.7,1.1c3.7,5.7,7.6,11.7,11.4,17.7c12.7,19.8,33,33.4,55.7,37.4c5.6,1,11.2,2,16.8,2.9c21.5,3.7,43.4,5.6,65.2,5.6
			c21.1,0,42.4-1.8,63.2-5.3c5.9-1,11.7-2,17.6-3c22.4-3.8,42.5-17,55.4-36.3c4.1-6.2,8.2-12.3,12.2-18.2l0.7-1.1l0-1.3l0.6-57.1
			l0-1.3l-0.7-1.1c-3.7-5.7-7.5-11.7-11.4-17.7c-12.7-19.8-33-33.4-55.7-37.4c-5.6-1-11.2-2-16.8-2.9C293.7,1.9,271.7,0,250,0L250,0
			z"/>
	</g>
	<g>
		<path class="st2" d="M250,4.4c21.5,0,43.1,1.9,64.4,5.6c5.6,1,11.2,1.9,16.8,2.9c21.7,3.8,40.8,16.8,52.8,35.4
			c3.8,5.9,7.6,11.8,11.4,17.7c-0.2,19-0.4,38.1-0.6,57.1c-4.1,6-8.1,12.1-12.2,18.2c-12.1,18.1-31.1,30.8-52.5,34.4
			c-5.9,1-11.7,2-17.6,3c-20.7,3.5-41.6,5.2-62.5,5.2c-21.5,0-43.1-1.9-64.4-5.6c-5.6-1-11.2-1.9-16.8-2.9
			c-21.7-3.8-40.8-16.8-52.8-35.4c-3.8-5.9-7.6-11.8-11.4-17.7c0.2-19,0.4-38.1,0.6-57.1c4.1-6,8.1-12.1,12.2-18.2
			c12.1-18.1,31.1-30.8,52.5-34.4c5.9-1,11.7-2,17.6-3C208.2,6.1,229.1,4.4,250,4.4 M250,2.2c-21,0-42.1,1.8-62.8,5.3
			c-5.9,1-11.7,2-17.6,3c-21.8,3.7-41.4,16.6-53.9,35.3c-4.1,6.2-8.2,12.3-12.2,18.2l-0.4,0.5l0,0.7L103,77l-0.4,45.3l0,0.7l0.4,0.6
			c3.7,5.7,7.6,11.7,11.4,17.7c12.4,19.2,32.2,32.5,54.3,36.4c5.6,1,11.2,2,16.8,2.9c21.4,3.7,43.2,5.6,64.8,5.6
			c21,0,42.1-1.8,62.8-5.3c5.9-1,11.7-2,17.6-3c21.8-3.7,41.4-16.6,53.9-35.3c4.1-6.2,8.2-12.3,12.2-18.2l0.4-0.5l0-0.7l0.6-57.1
			l0-0.7l-0.4-0.6c-3.7-5.7-7.5-11.6-11.4-17.7c-12.4-19.2-32.2-32.5-54.3-36.4c-5.6-1-11.2-2-16.8-2.9C293.4,4.1,271.6,2.2,250,2.2
			L250,2.2z"/>
	</g>
</g>
<g>
	<g>
		<path class="st0" d="M250.1,152.1c-13.7,0-27.5-1.2-41-3.5c-3.5-0.6-7.1-1.2-10.6-1.9c-13.9-2.4-26.3-10.8-34.1-22.9
			c-2.4-3.8-4.8-7.5-7.2-11.2l-0.2-0.3l0.4-36.8l0.2-0.2c2.6-3.8,5.1-7.7,7.7-11.5c7.9-11.8,20.2-19.9,33.9-22.2
			c3.7-0.6,7.4-1.3,11.2-1.9c13.1-2.2,26.5-3.3,39.8-3.3c13.7,0,27.5,1.2,41,3.5c3.5,0.6,7.1,1.2,10.6,1.9
			c13.9,2.4,26.3,10.8,34.1,22.9c2.4,3.8,4.8,7.5,7.2,11.2l0.2,0.3l-0.4,36.8l-0.2,0.2c-2.6,3.8-5.1,7.7-7.7,11.5
			c-7.9,11.8-20.2,19.9-33.9,22.2c-3.7,0.6-7.4,1.3-11.2,1.9C276.8,151,263.4,152.1,250.1,152.1
			C250.1,152.1,250.1,152.1,250.1,152.1z"/>
	</g>
	<g>
		<path class="st2" d="M250,37.3c13.7,0,27.3,1.2,40.8,3.5c3.5,0.6,7.1,1.2,10.6,1.9c13.7,2.4,25.9,10.7,33.5,22.4
			c2.4,3.8,4.8,7.5,7.2,11.2c-0.1,12.1-0.2,24.1-0.4,36.2c-2.6,3.8-5.1,7.7-7.7,11.5c-7.7,11.5-19.7,19.5-33.2,21.8
			c-3.7,0.6-7.4,1.3-11.1,1.9c-13.1,2.2-26.4,3.3-39.6,3.3c-13.7,0-27.3-1.2-40.8-3.5c-3.5-0.6-7.1-1.2-10.6-1.9
			c-13.7-2.4-25.9-10.7-33.5-22.4c-2.4-3.8-4.8-7.5-7.2-11.2c0.1-12.1,0.2-24.1,0.4-36.2c2.6-3.8,5.1-7.7,7.7-11.5
			c7.7-11.5,19.7-19.5,33.2-21.8c3.7-0.6,7.4-1.3,11.1-1.9C223.5,38.4,236.8,37.3,250,37.3 M250,35.3c-13.3,0-26.8,1.1-39.9,3.3
			c-3.7,0.6-7.4,1.3-11.2,1.9c-14,2.4-26.6,10.6-34.6,22.7c-2.6,3.9-5.1,7.7-7.7,11.5l-0.3,0.5l0,0.6l-0.2,23.6L156,112l0,0.6
			l0.3,0.5c2.4,3.7,4.8,7.5,7.2,11.2c7.9,12.3,20.6,20.8,34.8,23.3c3.5,0.6,7.1,1.2,10.6,1.9c13.6,2.4,27.4,3.6,41.2,3.6
			c13.3,0,26.8-1.1,39.9-3.3c3.7-0.6,7.4-1.3,11.2-1.9c14-2.4,26.6-10.6,34.6-22.7c2.6-3.9,5.1-7.7,7.7-11.5l0.3-0.5l0-0.6l0.1-15.3
			l0.2-20.9l0-0.6l-0.3-0.5c-2.4-3.7-4.8-7.5-7.2-11.2c-7.9-12.3-20.6-20.8-34.8-23.3c-3.5-0.6-7.1-1.2-10.6-1.9
			C277.6,36.5,263.8,35.3,250,35.3L250,35.3z"/>
	</g>
</g>
<g>
	<path class="st2" d="M182.8,152.7l-0.4,2.3c0,0.2-0.2,0.4-0.4,0.3l-0.6-0.1c-0.2,0-0.3-0.2-0.2-0.4l0.2-1l-4.5-0.8l-1.2,6.5
		l4.2,0.8c0.2,0,0.3,0.2,0.2,0.4l-0.2,0.9c0,0.2-0.2,0.3-0.4,0.3l-4.2-0.8l-1.2,6.5l1.2,0.2c0.2,0,0.3,0.2,0.2,0.4l-0.2,0.8
		c0,0.2-0.2,0.4-0.4,0.3l-4-0.7c-0.2,0-0.3-0.2-0.2-0.4l0.2-0.8c0-0.2,0.2-0.4,0.4-0.3l0.8,0.1l2.7-14.7l-0.8-0.1
		c-0.2,0-0.3-0.2-0.2-0.4l0.2-0.8c0-0.2,0.2-0.4,0.4-0.3l8.2,1.5C182.7,152.3,182.8,152.5,182.8,152.7z"/>
	<path class="st2" d="M188.2,154.8l-2.4,14.7l0.8,0.1c0.2,0,0.3,0.2,0.2,0.4l-0.1,0.8c0,0.2-0.2,0.4-0.4,0.3l-3.6-0.6
		c-0.2,0-0.3-0.2-0.2-0.4l0.1-0.8c0-0.2,0.2-0.4,0.4-0.3l0.8,0.1l2.4-14.7l-0.8-0.1c-0.2,0-0.3-0.2-0.2-0.4l0.1-0.8
		c0-0.2,0.2-0.4,0.4-0.3l3.6,0.6c0.2,0,0.3,0.2,0.2,0.4l-0.1,0.8c0,0.2-0.2,0.4-0.4,0.3L188.2,154.8z"/>
	<path class="st2" d="M200.9,172.3l-0.1,0.8c0,0.2-0.2,0.4-0.4,0.3l-3.8-0.6c-0.2,0-0.3-0.2-0.2-0.4l0.1-0.8c0-0.2,0.2-0.4,0.4-0.3
		l0.8,0.1l-1.8-6.5l-1.6-0.2l-0.9,6.1l0.8,0.1c0.2,0,0.3,0.2,0.2,0.4l-0.1,0.8c0,0.2-0.2,0.4-0.4,0.3l-3.6-0.5
		c-0.2,0-0.3-0.2-0.2-0.4l0.1-0.8c0-0.2,0.2-0.4,0.4-0.3l0.8,0.1l2.2-14.8l-0.8-0.1c-0.2,0-0.3-0.2-0.2-0.4l0.1-0.8
		c0-0.2,0.2-0.4,0.4-0.3l5,0.7c3.1,0.5,4.6,2.6,4.1,5.8c-0.4,2.6-1.8,4.1-3.8,4.5l1.9,6.7l0.7,0.1
		C200.8,171.9,200.9,172.1,200.9,172.3z M194.5,163l2.1,0.3c1.9,0.3,2.9-0.6,3.2-3.1c0.4-2.5-0.4-3.7-2.2-3.9l-2.1-0.3L194.5,163z"
		/>
	<path class="st2" d="M208.6,157.8l-1.8,14.8l0.8,0.1c0.2,0,0.3,0.2,0.2,0.4l-0.1,0.9c0,0.2-0.2,0.4-0.3,0.4l-3.6-0.4
		c-0.2,0-0.3-0.2-0.2-0.4l0.1-0.9c0-0.2,0.2-0.4,0.3-0.4l0.8,0.1l1.8-14.8l-0.8-0.1c-0.2,0-0.3-0.2-0.2-0.4l0.1-0.9
		c0-0.2,0.2-0.4,0.3-0.4l3.6,0.4c0.2,0,0.3,0.2,0.2,0.4l-0.1,0.9c0,0.2-0.2,0.4-0.3,0.4L208.6,157.8z"/>
	<path class="st2" d="M224.4,158.1l-0.1,0.9c0,0.2-0.2,0.4-0.3,0.4l-0.8-0.1l-1.4,16.1c0,0.2-0.2,0.4-0.3,0.4l-1.1-0.1
		c-0.2,0-0.3-0.1-0.3-0.3l-4.7-13.3l-1,11.4l0.8,0.1c0.2,0,0.3,0.2,0.3,0.4l-0.1,0.9c0,0.2-0.2,0.4-0.3,0.4l-3.2-0.3
		c-0.2,0-0.3-0.2-0.3-0.4l0.1-0.9c0-0.2,0.2-0.4,0.3-0.4l0.8,0.1l1.3-14.9l-0.8-0.1c-0.2,0-0.3-0.2-0.3-0.4l0.1-0.9
		c0-0.2,0.2-0.4,0.3-0.4l2.2,0.2c0.2,0,0.3,0.1,0.3,0.3l4.7,13.3l1-11.4l-0.8-0.1c-0.2,0-0.3-0.2-0.3-0.4l0.1-0.9
		c0-0.2,0.2-0.4,0.3-0.4l3.2,0.3C224.3,157.7,224.4,157.9,224.4,158.1z"/>
	<path class="st2" d="M237.6,167.1l-0.1,2.7c-0.2,4.9-2.3,7-5.5,6.8c-3.6-0.2-5.7-3-5.4-9.2l0-0.9c0.3-6.1,2.6-8.8,6.3-8.6
		c2.5,0.1,4.9,1.4,4.8,2.9l-0.1,2.4c0,0.2-0.1,0.4-0.3,0.4l-1.1-0.1c-0.2,0-0.3-0.2-0.3-0.4l0.1-1.6c0-1-1.5-1.9-3.1-2
		c-3.8-0.2-4.1,5-4.2,7l0,0.9c-0.2,4.6,0.9,7.3,3.3,7.4c2,0.1,3.2-1.7,3.4-5.2l0.1-1.1l-3.1-0.2c-0.2,0-0.3-0.2-0.3-0.4l0-0.9
		c0-0.2,0.2-0.4,0.3-0.4L237.6,167.1z"/>
	<path class="st2" d="M275.9,174.7l0,0.9c0,0.2-0.1,0.4-0.3,0.4l-3.8,0.2c-0.2,0-0.3-0.1-0.3-0.4l0-0.9c0-0.2,0.1-0.4,0.3-0.4l0.8,0
		l-3.1-6l-1.7,0.1l0.3,6.1l0.8,0c0.2,0,0.3,0.1,0.3,0.4l0,0.9c0,0.2-0.1,0.4-0.3,0.4l-3.6,0.2c-0.2,0-0.3-0.1-0.3-0.4l0-0.9
		c0-0.2,0.1-0.4,0.3-0.4l0.8,0l-0.8-14.9l-0.8,0c-0.2,0-0.3-0.1-0.3-0.4l0-0.9c0-0.2,0.1-0.4,0.3-0.4l5-0.3c3.1-0.2,5,1.6,5.2,4.9
		c0.1,2.6-0.9,4.4-2.9,5.2l3.2,6.2l0.7,0C275.8,174.4,275.9,174.5,275.9,174.7z M267.7,167l2.2-0.1c1.9-0.1,2.7-1.1,2.5-3.7
		c-0.1-2.5-1.1-3.5-2.9-3.4l-2.1,0.1L267.7,167z"/>
	<path class="st2" d="M289.5,173.6l0.1,0.9c0,0.2-0.1,0.4-0.3,0.4l-3.3,0.3c-0.2,0-0.3-0.1-0.3-0.4l-0.1-0.9c0-0.2,0.1-0.4,0.3-0.4
		l0.6-0.1l-1.2-3.5l-4.5,0.4l-0.5,3.6l0.6-0.1c0.2,0,0.3,0.1,0.3,0.4l0.1,0.9c0,0.2-0.1,0.4-0.3,0.4l-2.8,0.2
		c-0.2,0-0.3-0.1-0.3-0.4l-0.1-0.9c0-0.2,0.1-0.4,0.3-0.4l0.6-0.1l2.4-16.5c0-0.2,0.2-0.3,0.3-0.3l1.5-0.1c0.2,0,0.3,0.1,0.4,0.3
		l5.3,15.8l0.6-0.1C289.3,173.2,289.4,173.3,289.5,173.6z M284.7,168.3l-2.6-7.7l-1.2,8.1L284.7,168.3z"/>
	<path class="st2" d="M301.5,155.4l0.1,0.9c0,0.2-0.1,0.4-0.2,0.4l-0.8,0.1l2.1,16c0,0.2-0.1,0.4-0.2,0.4l-1.1,0.1
		c-0.2,0-0.3,0-0.4-0.2l-7.4-12l1.5,11.4l0.8-0.1c0.2,0,0.3,0.1,0.3,0.3l0.1,0.9c0,0.2-0.1,0.4-0.2,0.4l-3.2,0.4
		c-0.2,0-0.3-0.1-0.3-0.3l-0.1-0.9c0-0.2,0.1-0.4,0.2-0.4l0.8-0.1l-1.9-14.8l-0.8,0.1c-0.2,0-0.3-0.1-0.3-0.3l-0.1-0.9
		c0-0.2,0.1-0.4,0.2-0.4l2.2-0.3c0.2,0,0.3,0,0.4,0.2l7.4,12l-1.5-11.4l-0.8,0.1c-0.2,0-0.3-0.1-0.3-0.3l-0.1-0.9
		c0-0.2,0.1-0.4,0.2-0.4l3.2-0.4C301.3,155,301.5,155.1,301.5,155.4z"/>
	<path class="st2" d="M316.2,161.4l0.4,2.7c0.8,4.8-0.8,7.3-4,7.8c-3.5,0.6-6.2-1.8-7.2-7.9l-0.1-0.9c-1-6.1,0.7-9.1,4.4-9.7
		c2.5-0.4,5.1,0.4,5.3,1.8l0.4,2.4c0,0.2-0.1,0.4-0.2,0.4l-1,0.2c-0.2,0-0.3-0.1-0.4-0.3l-0.2-1.5c-0.2-1-1.9-1.5-3.4-1.3
		c-3.8,0.6-3,5.8-2.7,7.7l0.1,0.9c0.7,4.6,2.4,6.9,4.7,6.6c2-0.3,2.8-2.3,2.2-5.8l-0.2-1.1l-3.1,0.5c-0.2,0-0.3-0.1-0.4-0.3
		l-0.1-0.9c0-0.2,0.1-0.4,0.2-0.4L316.2,161.4z"/>
	<path class="st2" d="M326.4,151.3l0.5,2.8c0,0.2,0,0.4-0.2,0.4l-0.6,0.1c-0.2,0-0.3-0.1-0.4-0.3l-0.3-1.5l-4.7,0.8l1.1,6.5l4.4-0.8
		c0.2,0,0.3,0.1,0.4,0.3l0.1,0.8c0,0.2-0.1,0.4-0.2,0.4l-4.4,0.8l1.1,6.5l4.7-0.8l-0.3-1.5c0-0.2,0-0.4,0.2-0.4l0.6-0.1
		c0.2,0,0.3,0.1,0.4,0.3l0.5,2.8c0,0.2-0.1,0.4-0.2,0.5l-8.4,1.5c-0.2,0-0.3-0.1-0.4-0.3l-0.1-0.8c0-0.2,0-0.4,0.2-0.4l0.8-0.1
		l-2.6-14.7l-0.8,0.1c-0.2,0-0.3-0.1-0.4-0.3l-0.1-0.8c0-0.2,0.1-0.4,0.2-0.4l8.4-1.5C326.2,150.9,326.3,151.1,326.4,151.3z"/>
</g>
<g>
	<g>
		<path class="st2" d="M493.2,160.1c-67.2-22.6-153.6-35-243.1-35c-89.6,0-175.9,12.4-243.1,35l-4,1.3V27l4,1.3
			c67.2,22.6,153.6,35,243.1,35c89.6,0,175.9-12.4,243.1-35l4-1.3v134.4L493.2,160.1z"/>
	</g>
	<g>
		<path class="st1" d="M494.1,31.1v126.1C429,135.3,343.6,122,250.1,122C156.6,122,71.2,135.3,6,157.2V31.1
			C71.2,53,156.6,66.3,250.1,66.3C343.6,66.3,429,53,494.1,31.1 M500.1,22.8l-7.9,2.7c-66.9,22.5-152.9,34.9-242.2,34.9
			S74.8,47.9,7.9,25.4L0,22.8v8.3v126.1v8.3l7.9-2.7C74.8,140.4,160.8,128,250.1,128c89.2,0,175.2,12.4,242.2,34.9l7.9,2.7v-8.3
			V31.1V22.8L500.1,22.8z"/>
	</g>
</g>
<g>
	<g>
		<path class="st1" d="M31.8,141.9c-5.8,1.5-8.6,2.3-14.1,3.9c-0.5,0.1-0.7-0.6-0.7-2.2c0-32.9,0-65.8,0-98.7c0-1.6,0.2-2.3,0.7-2.2
			c5.4,1.5,8.1,2.3,13.7,3.7c0.5,0.1,0.7,0.9,0.7,2.4c0,4.1,0,6.1,0,10.2c0,1.5-0.2,2.1-0.7,2c-3.7-0.7-5.5-1-9-1.7
			c0,8.1,0,12.2,0,20.4c3.2,0.3,4.8,0.4,8.1,0.6c0.5,0,0.7,0.8,0.7,2.2c0,4.1,0,6.2,0,10.3c0,1.5-0.2,2.2-0.7,2.2
			c-3.3,0-4.9,0-8.1,0c0,11.3,0,22.7,0,34c3.7-0.7,5.6-1.1,9.5-1.8c0.5-0.1,0.7,0.6,0.7,2c0,4.1,0,6.1,0,10.2
			C32.5,140.9,32.3,141.7,31.8,141.9z"/>
		<path class="st1" d="M52.6,136.9c-5.9,1.3-8.8,2-14.5,3.4c-0.5,0.1-0.7-0.5-0.7-1.9c0-29.4,0-58.9,0-88.3c0-1.4,0.2-2.1,0.7-1.9
			c1.7,0.4,2.5,0.6,4.2,1c0.5,0.1,0.8,0.9,0.8,2.2c0,24.7,0,49.3,0,74c3.8-0.6,5.7-0.9,9.5-1.5c0.5-0.1,0.8,0.5,0.8,1.8
			c0,3.6,0,5.5,0,9.1C53.4,136.1,53.1,136.8,52.6,136.9z"/>
		<path class="st1" d="M73.6,132.6c-6.4,1.2-9.5,1.9-15.7,3.2c-0.5,0.1-0.8-0.5-0.8-1.7c0-26.5,0-53.1,0-79.6c0-1.3,0.3-1.9,0.8-1.7
			c6,1.3,9,1.9,15.2,3.1c0.5,0.1,0.8,0.7,0.8,1.9c0,3.3,0,4.9,0,8.2c0,1.2-0.3,1.7-0.8,1.6c-4.1-0.5-6.1-0.8-10-1.4
			c0,6.6,0,9.8,0,16.4c3.6,0.2,5.4,0.3,9,0.5c0.5,0,0.8,0.6,0.8,1.8c0,3.3,0,5,0,8.3c0,1.2-0.3,1.8-0.8,1.8c-3.6,0-5.4,0-9,0
			c0,11,0,16.4,0,27.4c4.2-0.6,6.3-0.9,10.5-1.4c0.5-0.1,0.8,0.5,0.8,1.6c0,3.3,0,4.9,0,8.2C74.4,131.8,74.1,132.5,73.6,132.6z"/>
		<path class="st1" d="M98,128.3c-4,0.6-6,1-10,1.6c-3.1,0.5-5.4-0.6-6.7-3.6c-1.3-3-2-8.1-2-15.3c0-11.3,0-22.6,0-33.9
			c0-7.2,0.7-12.3,2-15.3c1.3-3,3.5-4.1,6.7-3.6c3.8,0.6,5.7,0.9,9.5,1.6c0.6,0.1,0.9,0.7,0.9,1.8c0,2.9,0,4.3,0,7.2
			c0,1-0.3,1.5-0.9,1.5c-3.8-0.4-5.7-0.6-9.4-1.1c-1.1,0.1-1.8,0.7-2,1.9s-0.4,3.1-0.4,5.7c0,11.4,0,22.9,0,34.3
			c0,2.6,0.1,4.5,0.4,5.8c0.3,1.2,1,1.8,2,1.9c3.9-0.5,5.9-0.7,10-1.1c0.6-0.1,0.9,0.5,0.9,1.6c0,2.9,0,4.3,0,7.2
			C98.9,127.7,98.6,128.2,98,128.3z"/>
		<path class="st1" d="M108.5,125.3c0-17.9,0-35.8,0-53.7c-2.5-0.3-3.8-0.4-6.3-0.6c-0.6-0.1-0.9-0.6-0.9-1.6c0-2.9,0-4.3,0-7.2
			c0-1,0.3-1.5,0.9-1.4c7.6,1.2,11.5,1.7,19.4,2.7c0.6,0.1,0.9,0.6,0.9,1.5c0,2.6,0,3.9,0,6.6c0,0.9-0.3,1.4-0.9,1.3
			c-2.6-0.2-3.8-0.3-6.4-0.6c0,17.4,0,34.8,0,52.2c0,1-0.3,1.5-0.9,1.6c-2,0.3-3,0.4-4.9,0.7C108.8,126.7,108.5,126.2,108.5,125.3z"
			/>
		<path class="st1" d="M141.9,121.4c-1.7-6.3-2.6-9.5-4.3-16.1c-1.7,0.1-2.5,0.1-4.1,0.2c0,6.7,0,10,0,16.7c0,0.9-0.3,1.4-0.9,1.5
			c-2,0.2-3,0.3-4.9,0.6c-0.6,0.1-0.9-0.3-0.9-1.3c0-19.2,0-38.3,0-57.5c0-1,0.3-1.4,0.9-1.4c4.3,0.5,6.5,0.8,10.9,1.3
			c3.4,0.4,5.9,1.8,7.3,4.4c1.5,2.5,2.2,6.4,2.2,11.8c0,3.3,0,4.9,0,8.2c0,6.8-1.2,11.3-3.7,13.5c0,0.3,0,0.5,0,0.8
			c1.9,6.8,2.8,10.1,4.7,16.7c0,0.2,0.1,0.4,0.1,0.6c0,0.4-0.2,0.6-0.7,0.6c-2.1,0.2-3.1,0.3-5.2,0.5
			C142.5,122.5,142.1,122.2,141.9,121.4z M138.4,74.2c-2-0.2-3-0.2-4.9-0.4c0,9.1,0,13.6,0,22.7c2,0,2.9,0,4.9,0
			c1.2-0.2,1.9-0.8,2.2-1.7c0.3-1,0.5-2.5,0.4-4.6c0-3.8,0-5.7,0-9.5c0-2.1-0.1-3.6-0.4-4.6C140.3,75.1,139.5,74.4,138.4,74.2z"/>
		<path class="st1" d="M178.1,82.7c0,9.2,0,13.8,0,23c0,4.9-0.8,8.4-2.3,10.7c-1.5,2.3-4,3.6-7.6,3.8c-1.8,0.1-2.7,0.2-4.5,0.4
			c-3.5,0.3-6-0.6-7.5-2.8c-1.5-2.2-2.2-5.9-2.2-11.2c0-9.9,0-14.8,0-24.7c0-5.2,0.7-9,2.2-11.2c1.5-2.2,4-3.1,7.5-2.8
			c1.8,0.1,2.7,0.2,4.5,0.4c3.5,0.3,6.1,1.6,7.6,3.8C177.4,74.3,178.1,77.8,178.1,82.7z M171,106.4c0-9.8,0-14.7,0-24.5
			c0-1.9-0.1-3.2-0.4-4.1c-0.3-0.9-1.1-1.5-2.3-1.7c-1.7-0.1-2.6-0.1-4.4-0.2c-1.2,0.1-2,0.6-2.3,1.5c-0.3,0.9-0.5,2.3-0.4,4.2
			c0,10.1,0,15.1,0,25.2c0,1.9,0.1,3.3,0.4,4.2c0.3,0.9,1.1,1.4,2.3,1.5c1.7-0.1,2.6-0.1,4.4-0.2c1.2-0.2,2-0.8,2.3-1.7
			C170.9,109.7,171,108.3,171,106.4z"/>
		<path class="st1" d="M209.5,71.6c0,15,0,30.1,0,45.1c0,0.7-0.3,1.1-1,1.1c-2.1,0.1-3.1,0.1-5.1,0.2c-0.7,0-1-0.3-1-1
			c0-7.4,0-11.1,0-18.5c-4-4.2-5.9-6.4-9.8-10.8c-0.2,0.1-0.3,0.1-0.5,0.2c0,9.9,0,19.7,0,29.6c0,0.7-0.3,1.1-1,1.2
			c-2.1,0.1-3.1,0.2-5.2,0.3c-0.6,0-0.9-0.3-0.9-1.1c0-15.8,0-31.6,0-47.4c0-0.8,0.3-1.1,0.9-1.1c2.1,0.1,3.1,0.2,5.2,0.3
			c0.6,0,1,0.4,1,1.2c0,2.2,0,3.4,0,5.6c4,4.5,6,6.8,9.9,11.1c0.2-0.1,0.3-0.1,0.4-0.2c0-6.4,0-9.6,0-16c0-0.7,0.3-1.1,1-1
			c2,0.1,3.1,0.1,5.1,0.2C209.2,70.5,209.5,70.9,209.5,71.6z"/>
		<path class="st1" d="M217.3,116.5c0-14.9,0-29.7,0-44.6c0-0.7,0.3-1.1,1-1c2.2,0.1,3.3,0.1,5.6,0.1c0.7,0,1,0.4,1,1.1
			c0,14.7,0,29.5,0,44.2c0,0.7-0.3,1.1-1,1.1c-2.2,0.1-3.3,0.1-5.6,0.1C217.6,117.5,217.3,117.2,217.3,116.5z"/>
		<path class="st1" d="M254.5,117.1c-4.8,0-7.2,0-11.9,0c-3.8,0-6.4-0.9-8-2.9c-1.6-1.9-2.4-5.1-2.4-9.6c0-8.4,0-12.5,0-20.9
			c0-4.4,0.8-7.6,2.4-9.6c1.6-1.9,4.3-2.9,8-2.9c4.5,0,6.8,0,11.3,0c0.7,0,1.1,0.4,1.1,1.1c0,1.9,0,2.9,0,4.8c0,0.7-0.4,1-1.1,1
			c-4.5,0-6.7,0-11.2,0c-1.3,0.1-2.1,0.6-2.5,1.4c-0.4,0.8-0.5,2-0.5,3.7c0,8.7,0,13,0,21.7c0,1.7,0.1,2.9,0.5,3.7
			c0.4,0.8,1.2,1.2,2.5,1.4c4.7,0,7.1,0,11.8,0c0.7,0,1.1,0.4,1.1,1.1c0,1.9,0,2.9,0,4.8C255.6,116.7,255.2,117.1,254.5,117.1z"/>
		<path class="st1" d="M286.2,103.2c-2.2,0-3.2,0-5.4-0.1c0,5.3,0,7.9,0,13.2c0,0.7-0.3,1.1-1,1c-2.2-0.1-3.3-0.1-5.5-0.1
			c-0.7,0-1-0.4-1-1.1c0-14.7,0-29.4,0-44.1c0-0.7,0.3-1.1,1-1.1c4.8-0.1,7.2-0.2,11.9-0.3c3.7-0.1,6.3,0.8,7.9,2.8
			c1.6,2,2.3,5.3,2.3,9.9c0,2.8,0,4.2,0,7c0,4.6-0.8,7.9-2.3,9.9C292.5,102.3,289.9,103.3,286.2,103.2z M286.1,77.9
			c-2.1,0-3.2,0.1-5.3,0.1c0,7.2,0,10.8,0,18c2.1,0,3.2,0,5.3,0c1.3-0.1,2.1-0.6,2.4-1.4c0.3-0.8,0.5-2.1,0.5-3.8c0-3.2,0-4.7,0-7.9
			c0-1.7-0.1-3-0.5-3.8C288.1,78.4,287.3,78,286.1,77.9z"/>
		<path class="st1" d="M322,119.5c-7.5-0.5-11.2-0.7-18.8-1.1c-0.6,0-1-0.4-1-1.1c0-15.3,0-30.7,0-46c0-0.7,0.3-1.1,1-1.1
			c7.4-0.4,11-0.6,18.2-1.1c0.6,0,0.9,0.3,0.9,1.1c0,2.2,0,3.3,0,5.4c0,0.8-0.3,1.2-0.9,1.2c-4.7,0.2-7.1,0.3-11.9,0.5
			c0,4,0,6,0,9.9c4.3-0.1,6.5-0.1,10.7-0.2c0.6,0,0.9,0.4,0.9,1.1c0,2.2,0,3.2,0,5.4c0,0.8-0.3,1.2-0.9,1.2c-4.3,0-6.4,0-10.7,0
			c0,6.6,0,10,0,16.6c5,0.2,7.5,0.3,12.5,0.5c0.6,0,0.9,0.4,0.9,1.2c0,2.2,0,3.3,0,5.4C322.9,119.1,322.6,119.5,322,119.5z"/>
		<path class="st1" d="M344.8,120.1c-1.8-6.3-2.7-9.5-4.4-15.6c-1.7-0.1-2.6-0.1-4.3-0.1c0,6,0,9,0,15c0,0.8-0.3,1.2-1,1.1
			c-2.1-0.2-3.1-0.2-5.2-0.4c-0.7-0.1-1-0.5-1-1.3c0-16.4,0-32.7,0-49.1c0-0.8,0.3-1.3,1-1.3c4.6-0.3,6.8-0.5,11.3-0.9
			c3.5-0.3,6,0.6,7.4,2.8c1.5,2.2,2.2,6,2.2,11.4c0,3.3,0,4.9,0,8.1c0,6.8-1.2,11.2-3.7,13.2c0,0.3,0,0.5,0,0.8
			c1.9,6.7,2.8,10.1,4.7,17.1c0,0.3,0.1,0.4,0.1,0.6c0,0.4-0.2,0.5-0.7,0.5c-2.1-0.2-3.1-0.3-5.2-0.5
			C345.4,121.3,345,120.9,344.8,120.1z M341.2,75.6c-2,0.1-3,0.2-5.1,0.3c0,8.2,0,12.2,0,20.4c2,0,3.1,0,5.1,0
			c1.2-0.1,1.9-0.7,2.3-1.6c0.3-0.9,0.5-2.4,0.4-4.3c0-3.6,0-5.4,0-9c0-2-0.1-3.4-0.4-4.3C343.1,76.2,342.4,75.7,341.2,75.6z"/>
		<path class="st1" d="M357.8,121.3c0-18,0-36.1,0-54.1c0-0.9,0.3-1.3,0.9-1.4c2.1-0.2,3.1-0.3,5.1-0.6c0.6-0.1,0.9,0.3,0.9,1.2
			c0,18.5,0,37.1,0,55.6c0,0.9-0.3,1.3-0.9,1.2c-2-0.2-3.1-0.3-5.1-0.6C358.1,122.6,357.8,122.1,357.8,121.3z"/>
		<path class="st1" d="M382.4,103.9c-3.8-5.8-5.7-8.6-9.6-14c-1.5-2.2-2.3-5.2-2.3-9c0-0.6,0-1,0-1.6c0-5.2,0.7-9,2.2-11.6
			c1.5-2.6,3.8-4.1,7.1-4.5c3.5-0.5,5.3-0.7,8.8-1.2c0.6-0.1,0.9,0.4,0.9,1.4c0,2.7,0,4.1,0,6.8c0,1-0.3,1.5-0.9,1.6
			c-2.9,0.3-4.4,0.4-7.4,0.7c-1.4,0.1-2.4,0.5-3,1.1c-0.6,0.6-0.9,1.7-0.9,3.4c0,1.1,0,1.7,0,2.8c0,1.8,0.4,3.1,1.2,4.2
			c3.8,5.4,5.7,8.2,9.5,14c1.5,2.3,2.3,5.7,2.3,10.1c0,0.9,0,1.3,0,2.1c0,5.7-0.7,9.8-2.1,12.2c-1.4,2.4-3.7,3.3-7,2.9
			c-4-0.5-6.1-0.8-10.2-1.3c-0.6-0.1-0.9-0.6-0.9-1.5c0-2.5,0-3.8,0-6.3c0-1,0.3-1.4,0.9-1.4c3.6,0.3,5.3,0.5,8.9,0.8
			c1.4,0.1,2.3,0,2.9-0.5c0.5-0.5,0.8-1.6,1-3.4c0-1.4,0-2.1,0-3.5C383.6,106.7,383.2,105.2,382.4,103.9z"/>
		<path class="st1" d="M413.5,130.2c-4-0.7-6-1-10-1.6c-3.2-0.5-5.5-2.3-6.9-5.3c-1.4-3-2.1-7.7-2.1-14c0-10,0-20,0-30
			c0-6.3,0.7-11,2.1-14c1.4-3,3.7-4.8,6.9-5.3c3.8-0.6,5.7-0.9,9.5-1.6c0.6-0.1,0.9,0.4,0.9,1.6c0,3.1,0,4.6,0,7.6
			c0,1.1-0.3,1.7-0.9,1.8c-3.7,0.4-5.6,0.7-9.4,1.1c-1.1,0.3-1.8,1.1-2.1,2.3c-0.3,1.2-0.4,3-0.4,5.5c0,10.7,0,21.5,0,32.2
			c0,2.5,0.1,4.3,0.4,5.5c0.3,1.2,1,2,2.1,2.3c4,0.4,6,0.7,9.9,1.1c0.6,0.1,0.9,0.7,0.9,1.9c0,3.1,0,4.6,0,7.6
			C414.4,129.8,414.1,130.3,413.5,130.2z"/>
		<path class="st1" d="M439.5,75.6c0,12.4,0,24.8,0,37.2c0,7.9-0.6,13.5-1.9,16.7c-1.3,3.3-3.4,4.5-6.4,3.9
			c-1.5-0.3-2.3-0.5-3.9-0.7c-3.1-0.6-5.3-2.6-6.6-6c-1.3-3.4-2-8.6-2-15.7c0-11.2,0-22.4,0-33.6c0-7.1,0.7-12.3,2-15.7
			c1.3-3.4,3.5-5.4,6.6-6c1.6-0.3,2.3-0.4,3.9-0.7c3-0.6,5.2,0.7,6.4,3.9C438.9,62.1,439.5,67.7,439.5,75.6z M433.5,113
			c0-12.6,0-25.1,0-37.7c0-2.9-0.1-5-0.4-6.3c-0.3-1.3-0.9-2-2-2.1c-1.5,0.2-2.3,0.3-3.8,0.5c-1,0.4-1.7,1.2-2,2.6s-0.4,3.4-0.4,6.1
			c0,12,0,24.1,0,36.1c0,2.8,0.1,4.8,0.4,6.1c0.3,1.3,1,2.2,2,2.6c1.5,0.2,2.3,0.3,3.8,0.5c1-0.1,1.7-0.8,2-2.1
			C433.4,118,433.5,115.9,433.5,113z"/>
		<path class="st1" d="M455.3,111.3c-1.7-0.2-2.5-0.2-4.2-0.4c0,9.9,0,14.8,0,24.7c0,1.3-0.3,1.9-0.8,1.8c-1.7-0.4-2.6-0.6-4.3-1
			c-0.5-0.1-0.8-0.8-0.8-2.1c0-26.8,0-53.6,0-80.4c0-1.4,0.3-2.1,0.8-2.2c3.8-0.8,5.6-1.3,9.3-2.1c2.9-0.7,4.9,0.8,6.1,4.4
			c1.2,3.7,1.8,10,1.8,19c0,5.5,0,8.2,0,13.6c0,8.9-0.6,15.4-1.8,19.2C460.2,109.8,458.2,111.6,455.3,111.3z M455.2,63.3
			c-1.6,0.3-2.5,0.4-4.1,0.7c0,11.2,0,22.4,0,33.7c1.7,0,2.5,0,4.1,0.1c1-0.2,1.6-1.1,1.9-2.7c0.3-1.5,0.4-3.9,0.4-7.2c0-6,0-9,0-15
			c0-3.3-0.1-5.6-0.4-7.1C456.8,64.2,456.2,63.4,455.2,63.3z"/>
		<path class="st1" d="M482.5,145.7c-5.5-1.6-8.4-2.4-14.1-3.9c-0.5-0.1-0.7-0.9-0.7-2.4c0-30.2,0-60.4,0-90.6
			c0-1.4,0.2-2.2,0.7-2.4c5.6-1.4,8.3-2.2,13.7-3.7c0.5-0.1,0.7,0.6,0.7,2.2c0,4.4,0,6.6,0,11.1c0,1.6-0.2,2.4-0.7,2.5
			c-3.5,0.7-5.3,1-8.9,1.7c0,7.9,0,11.9,0,19.9c3.3-0.3,4.9-0.4,8-0.6c0.5,0,0.7,0.7,0.7,2.3c0,4.4,0,6.6,0,11
			c0,1.6-0.2,2.3-0.7,2.3c-3.2,0-4.8,0-8,0c0,11,0,22.1,0,33.1c3.8,0.7,5.7,1.1,9.3,1.8c0.5,0.1,0.7,0.9,0.7,2.5c0,4.4,0,6.7,0,11.1
			C483.2,145.1,482.9,145.8,482.5,145.7z"/>
	</g>
</g>
<g>
	<path class="st2" d="M193.4,35.8c-0.8,1.3-2.2,2-3.9,2.4c-4.2,1-7.6-1.7-9.2-8.7l-0.3-1.1c-1.7-7.1,0.2-10.9,4.4-11.9
		c2.6-0.6,4.7,0.7,5,2.1l0.6,2.8c0.1,0.3,0,0.5-0.2,0.5l-1.2,0.3c-0.2,0-0.4-0.1-0.5-0.4l-0.5-2.2c-0.2-1-1.7-1.4-2.8-1.2
		c-2.9,0.7-3.6,4-2.4,9.4l0.3,1.1c1.3,5.5,3.6,8,6.3,7.3c1.2-0.3,2.2-1,2.7-1.8c0.1-0.2,0.3-0.2,0.5-0.1l0.9,0.8
		C193.5,35.4,193.5,35.6,193.4,35.8z"/>
	<path class="st2" d="M211.7,33l0.1,1c0,0.3-0.1,0.5-0.3,0.5l-4.5,0.6c-0.2,0-0.4-0.1-0.4-0.4l-0.1-1c0-0.3,0.1-0.5,0.3-0.5l0.9-0.1
		l-4.2-6.8l-2,0.3l1,7.2l0.9-0.1c0.2,0,0.4,0.1,0.4,0.4l0.1,1c0,0.3-0.1,0.5-0.3,0.5l-4.3,0.6c-0.2,0-0.4-0.1-0.4-0.4l-0.1-1
		c0-0.3,0.1-0.5,0.3-0.5l0.9-0.1l-2.5-17.5l-0.9,0.1c-0.2,0-0.4-0.1-0.4-0.4l-0.1-1c0-0.3,0.1-0.5,0.3-0.5l5.9-0.8
		c3.6-0.5,6.1,1.4,6.6,5.3c0.4,3.1-0.6,5.3-2.8,6.4l4.4,7l0.8-0.1C211.5,32.6,211.7,32.8,211.7,33z M201.3,24.7l2.5-0.4
		c2.3-0.3,3.1-1.6,2.6-4.6s-1.7-4-3.8-3.7l-2.5,0.4L201.3,24.7z"/>
	<path class="st2" d="M229.8,31.3l0.1,1c0,0.3-0.1,0.5-0.3,0.5l-3.9,0.3c-0.2,0-0.4-0.2-0.4-0.4l-0.1-1c0-0.3,0.1-0.5,0.3-0.5
		l0.7-0.1l-1.4-4.2l-5.4,0.5l-0.6,4.3l0.8-0.1c0.2,0,0.4,0.2,0.4,0.4l0.1,1c0,0.3-0.1,0.5-0.3,0.5l-3.3,0.3c-0.2,0-0.4-0.2-0.4-0.4
		l-0.1-1c0-0.3,0.1-0.5,0.3-0.5l0.7-0.1l2.9-19.6c0-0.3,0.2-0.4,0.4-0.4l1.8-0.2c0.2,0,0.4,0.1,0.4,0.4l6.3,18.8l0.7-0.1
		C229.6,30.8,229.7,31,229.8,31.3z M224.1,25l-3.1-9.2l-1.4,9.6L224.1,25z"/>
	<path class="st2" d="M246.9,20.8L247,24c0.2,5.8-2.1,8.5-5.8,8.6c-4.2,0.1-7-3.1-7.2-10.3l0-1.1c-0.2-7.3,2.2-10.6,6.7-10.8
		c2.9-0.1,5.9,1.2,6,2.9l0.1,2.9c0,0.3-0.1,0.5-0.3,0.5l-1.2,0c-0.2,0-0.4-0.2-0.4-0.5l-0.1-1.9c0-1.1-2-2.1-3.8-2
		c-4.6,0.1-4.4,6.3-4.3,8.7l0,1.1c0.2,5.5,1.7,8.5,4.6,8.4c2.4-0.1,3.6-2.3,3.5-6.5l0-1.3l-3.7,0.1c-0.2,0-0.4-0.2-0.4-0.5l0-1
		c0-0.2,0.2-0.5,0.3-0.5L246.9,20.8z"/>
	<path class="st2" d="M264.9,26.2c-0.1,4.2-1.9,6.5-6.2,6.4c-3.9-0.1-5.9-1.6-5.8-3.6l0.1-2.9c0-0.3,0.2-0.5,0.4-0.5l1.2,0
		c0.2,0,0.3,0.2,0.3,0.5l-0.1,2.4c0,1.2,2,2,3.9,2c2.8,0.1,3.6-2,3.7-4.3c0.1-2.5-0.9-2.9-3.5-4.1c-3.5-1.6-5.2-2.4-5.1-6.2
		c0.1-3.8,1.8-5.8,5.9-5.7c2.2,0.1,4.9,1.2,4.9,3.3l-0.1,2.9c0,0.3-0.2,0.5-0.4,0.5l-1.2,0c-0.2,0-0.3-0.2-0.3-0.5l0.1-2.2
		c0-1.1-1.4-1.8-2.9-1.9c-2.5-0.1-3.3,1.5-3.4,3.5c-0.1,1.8,0.6,2.1,2.7,3.1C262.9,20.7,265,21.4,264.9,26.2z"/>
	<path class="st2" d="M283.5,12.7l-0.3,3.4c0,0.3-0.2,0.4-0.4,0.4l-0.8-0.1c-0.2,0-0.3-0.2-0.3-0.5l0.2-1.8l-3.3-0.3l-1.5,17.6
		l1.2,0.1c0.2,0,0.3,0.2,0.3,0.5l-0.1,1c0,0.3-0.2,0.4-0.4,0.4l-4.8-0.4c-0.2,0-0.3-0.2-0.3-0.5l0.1-1c0-0.3,0.2-0.4,0.4-0.4
		l1.2,0.1l1.5-17.6l-3.3-0.3l-0.2,1.8c0,0.3-0.2,0.4-0.4,0.4l-0.8-0.1c-0.2,0-0.3-0.2-0.3-0.5l0.3-3.4c0-0.2,0.2-0.4,0.4-0.4
		l11.2,0.9C283.4,12.2,283.5,12.4,283.5,12.7z"/>
	<path class="st2" d="M298.8,34.5l-0.1,1c0,0.3-0.2,0.4-0.4,0.4l-3.9-0.5c-0.2,0-0.3-0.2-0.3-0.5l0.1-1c0-0.3,0.2-0.4,0.4-0.4
		l0.7,0.1l-0.4-4.4l-5.4-0.7l-1.6,4.1l0.7,0.1c0.2,0,0.3,0.2,0.3,0.5l-0.1,1c0,0.3-0.2,0.4-0.4,0.4l-3.3-0.4c-0.2,0-0.3-0.2-0.3-0.5
		l0.1-1c0-0.3,0.2-0.4,0.4-0.4l0.7,0.1l7.2-18.5c0.1-0.2,0.3-0.3,0.4-0.3l1.8,0.2c0.2,0,0.3,0.2,0.3,0.5l2,19.7l0.7,0.1
		C298.8,34,298.9,34.2,298.8,34.5z M294.7,27.2l-0.9-9.6l-3.5,9L294.7,27.2z"/>
	<path class="st2" d="M321.4,18.6l-0.2,1c-0.1,0.3-0.2,0.4-0.4,0.4l-0.9-0.2l-4,18.8c-0.1,0.3-0.2,0.4-0.4,0.4l-1.3-0.3
		c-0.2,0-0.3-0.2-0.4-0.4l-3.6-16.4l-2.8,13.3l0.9,0.2c0.2,0,0.3,0.3,0.2,0.5l-0.2,1c-0.1,0.3-0.2,0.4-0.4,0.4l-3.8-0.8
		c-0.2,0-0.3-0.3-0.2-0.5l0.2-1c0.1-0.3,0.2-0.4,0.4-0.4l0.9,0.2l3.7-17.3l-0.9-0.2c-0.2,0-0.3-0.3-0.2-0.5l0.2-1
		c0.1-0.3,0.2-0.4,0.4-0.4l2.6,0.6c0.2,0,0.3,0.2,0.4,0.4l3.6,16.4l2.8-13.3l-0.9-0.2c-0.2,0-0.3-0.3-0.2-0.5l0.2-1
		c0.1-0.3,0.2-0.4,0.4-0.4l3.8,0.8C321.4,18.1,321.5,18.4,321.4,18.6z"/>
</g>
<g>
	<path class="st2" d="M217.6,43.5v0.7c0,0.2-0.1,0.3-0.3,0.3h-0.7v12.4c0,0.2-0.1,0.3-0.3,0.3h-1c-0.1,0-0.2-0.1-0.3-0.2l-5.1-9.9
		v8.8h0.7c0.2,0,0.3,0.1,0.3,0.3v0.7c0,0.2-0.1,0.3-0.3,0.3h-2.8c-0.2,0-0.3-0.1-0.3-0.3v-0.7c0-0.2,0.1-0.3,0.3-0.3h0.7V44.5h-0.7
		c-0.2,0-0.3-0.1-0.3-0.3v-0.7c0-0.2,0.1-0.3,0.3-0.3h1.9c0.1,0,0.2,0.1,0.3,0.2l5.1,9.9v-8.8h-0.7c-0.2,0-0.3-0.1-0.3-0.3v-0.7
		c0-0.2,0.1-0.3,0.3-0.3h2.8C217.5,43.2,217.6,43.3,217.6,43.5z"/>
	<path class="st2" d="M229.9,56.2v0.7c0,0.2-0.1,0.3-0.3,0.3h-2.9c-0.2,0-0.3-0.1-0.3-0.3v-0.7c0-0.2,0.1-0.3,0.3-0.3h0.5l-0.7-2.8
		h-4l-0.7,2.8h0.6c0.2,0,0.3,0.1,0.3,0.3v0.7c0,0.2-0.1,0.3-0.3,0.3H220c-0.2,0-0.3-0.1-0.3-0.3v-0.7c0-0.2,0.1-0.3,0.3-0.3h0.5
		l3.4-12.5c0.1-0.2,0.2-0.2,0.3-0.2h1.3c0.2,0,0.3,0.1,0.3,0.3l3.4,12.5h0.5C229.8,55.9,229.9,56.1,229.9,56.2z M226.2,51.9
		l-1.6-6.1l-1.6,6.1H226.2z"/>
	<path class="st2" d="M241.9,43.5v0.7c0,0.2-0.1,0.3-0.3,0.3h-0.7v8.4c0,2.8-1.3,4.5-3.7,4.5h-0.6c-2.4,0-4.1-1.7-4.1-4.5v-8.4h-0.7
		c-0.2,0-0.3-0.1-0.3-0.3v-0.7c0-0.2,0.1-0.3,0.3-0.3h3.2c0.2,0,0.3,0.1,0.3,0.3v0.7c0,0.2-0.1,0.3-0.3,0.3h-0.7v8.4
		c0,1.6,0.9,3.2,2.3,3.2h0.6c1.4,0,2.3-1.6,2.3-3.2v-8.4h-0.7c-0.2,0-0.3-0.1-0.3-0.3v-0.7c0-0.2,0.1-0.3,0.3-0.3h2.8
		C241.8,43.2,241.9,43.3,241.9,43.5z"/>
	<path class="st2" d="M252.9,43.5v2.2c0,0.2-0.1,0.3-0.3,0.3H252c-0.2,0-0.3-0.1-0.3-0.3v-1.2h-2.4v11.5h0.9c0.2,0,0.3,0.1,0.3,0.3
		v0.7c0,0.2-0.1,0.3-0.3,0.3h-3.5c-0.2,0-0.3-0.1-0.3-0.3v-0.7c0-0.2,0.1-0.3,0.3-0.3h0.9V44.5h-2.4v1.2c0,0.2-0.1,0.3-0.3,0.3h-0.6
		c-0.2,0-0.3-0.1-0.3-0.3v-2.2c0-0.2,0.1-0.3,0.3-0.3h8.3C252.7,43.2,252.9,43.3,252.9,43.5z"/>
	<path class="st2" d="M257.8,44.5v11.5h0.7c0.2,0,0.3,0.1,0.3,0.3v0.7c0,0.2-0.1,0.3-0.3,0.3h-3.2c-0.2,0-0.3-0.1-0.3-0.3v-0.7
		c0-0.2,0.1-0.3,0.3-0.3h0.7V44.5h-0.7c-0.2,0-0.3-0.1-0.3-0.3v-0.7c0-0.2,0.1-0.3,0.3-0.3h3.2c0.2,0,0.3,0.1,0.3,0.3v0.7
		c0,0.2-0.1,0.3-0.3,0.3H257.8z"/>
	<path class="st2" d="M269.4,54.7v2.2c0,0.2-0.1,0.3-0.3,0.3h-7.2c-0.2,0-0.3-0.1-0.3-0.3v-0.7c0-0.2,0.1-0.3,0.3-0.3h0.7V44.5h-0.7
		c-0.2,0-0.3-0.1-0.3-0.3v-0.7c0-0.2,0.1-0.3,0.3-0.3h3.2c0.2,0,0.3,0.1,0.3,0.3v0.7c0,0.2-0.1,0.3-0.3,0.3h-0.7v11.5h3.9v-1.2
		c0-0.2,0.1-0.3,0.3-0.3h0.6C269.3,54.4,269.4,54.5,269.4,54.7z"/>
	<path class="st2" d="M281.4,43.5v0.7c0,0.2-0.1,0.3-0.3,0.3h-0.7v8.4c0,2.8-1.3,4.5-3.7,4.5h-0.6c-2.4,0-4.1-1.7-4.1-4.5v-8.4h-0.7
		c-0.2,0-0.3-0.1-0.3-0.3v-0.7c0-0.2,0.1-0.3,0.3-0.3h3.2c0.2,0,0.3,0.1,0.3,0.3v0.7c0,0.2-0.1,0.3-0.3,0.3h-0.7v8.4
		c0,1.6,0.9,3.2,2.3,3.2h0.6c1.4,0,2.3-1.6,2.3-3.2v-8.4h-0.7c-0.2,0-0.3-0.1-0.3-0.3v-0.7c0-0.2,0.1-0.3,0.3-0.3h2.8
		C281.3,43.2,281.4,43.3,281.4,43.5z"/>
	<path class="st2" d="M292.7,53.1c0,2.7-1.3,4.3-4.4,4.3c-2.8,0-4.3-0.9-4.3-2.2v-1.9c0-0.2,0.1-0.3,0.3-0.3h0.9
		c0.2,0,0.3,0.1,0.3,0.3v1.6c0,0.8,1.5,1.2,2.9,1.2c2,0,2.6-1.4,2.6-2.8c0-1.6-0.7-1.9-2.6-2.6c-2.6-0.9-3.8-1.4-3.8-3.9
		c0-2.5,1.2-3.8,4.2-3.8c1.6,0,3.7,0.7,3.7,2v1.9c0,0.2-0.1,0.3-0.3,0.3h-0.9c-0.2,0-0.3-0.1-0.3-0.3v-1.4c0-0.7-1.1-1.2-2.2-1.2
		c-1.8,0-2.4,1-2.4,2.3c0,1.2,0.5,1.4,2,1.9C291.1,49.6,292.7,50.1,292.7,53.1z"/>
</g>
</svg>
