<?xml version="1.0" encoding="utf-8"?>
<!-- Generator: Adobe Illustrator 28.1.0, SVG Export Plug-In . SVG Version: 6.00 Build 0)  -->
<svg version="1.1" id="Livello_1" xmlns="http://www.w3.org/2000/svg" xmlns:xlink="http://www.w3.org/1999/xlink" x="0px" y="0px"
	 viewBox="0 0 130.9 33.3" style="enable-background:new 0 0 130.9 33.3;" xml:space="preserve">
<g>
	<path d="M8.8,27.5H4.2V12.7h4.6V27.5z M14.8,18.1c0,2.1-0.4,3.6-1.2,4.4s-1.6,1.1-2.6,1.1H9.7V12.7h1.6c0.5,0,1,0.2,1.6,0.5
		s1,0.9,1.4,1.7C14.6,15.7,14.8,16.8,14.8,18.1z"/>
	<path d="M21,9.9c0,1.3-0.8,1.9-2.3,1.9c-0.8,0-1.3-0.2-1.7-0.6s-0.6-0.8-0.6-1.4c0-0.2,0.1-0.5,0.2-0.8c0.2-0.3,0.4-0.5,0.8-0.7
		s0.8-0.3,1.3-0.3c0.4,0,0.8,0.1,1.2,0.2c0.4,0.1,0.6,0.4,0.9,0.6S21,9.5,21,9.9z M20.8,23.6h-4.4V12.7h4.4V23.6z"/>
	<path d="M27,23.6h-4.4v-11H27V23.6z M32.5,23.6h-4.4v-11h1.4c0.2,0,0.5,0.1,0.9,0.2c0.3,0.1,0.7,0.3,1,0.6s0.6,0.6,0.8,0.9
		c0.2,0.4,0.3,0.8,0.3,1.3V23.6z"/>
	<path d="M39.9,23.6h-0.9c-0.8,0-1.6-0.2-2.4-0.5c-0.8-0.4-1.4-0.9-2-1.7c-0.5-0.8-0.8-1.8-0.8-3c0-0.9,0.1-1.7,0.4-2.4
		c0.3-0.7,0.6-1.3,1-1.8c0.4-0.5,0.9-0.9,1.5-1.1c0.5-0.3,1.1-0.4,1.7-0.4h1.4V23.6z M40.1,26.7c0,0.3-0.1,0.6-0.2,1
		c-0.1,0.4-0.4,0.7-0.8,1.1c-0.4,0.3-0.8,0.5-1.4,0.5c-0.8,0-1.5-0.3-1.9-0.8c-0.4-0.5-0.6-1.1-0.6-1.8c0-0.5,0.1-0.9,0.5-1.3
		s0.7-0.7,1.1-0.9c0.4-0.2,0.8-0.3,1-0.3c0.2,0,0.5,0.1,0.9,0.2c0.4,0.1,0.7,0.4,1.1,0.8C39.9,25.5,40.1,26.1,40.1,26.7z M46,25
		c0,0.7-0.1,1.3-0.4,1.8c-0.2,0.5-0.6,1-1,1.3c-0.4,0.4-0.9,0.6-1.4,0.8c-0.5,0.2-1,0.3-1.6,0.3h-2c0.4-0.3,0.7-0.7,0.9-1.2
		c0.2-0.5,0.3-0.9,0.3-1.2V12.7H46V25z"/>
	<path d="M47.7,18.5c0-1.2,0.9-2.1,2.1-2.1c1.1,0,2.1,0.9,2.1,2c0,1.2-0.9,2.1-2.1,2.1C48.6,20.5,47.7,19.6,47.7,18.5z"/>
	<path d="M57.9,23.6h-0.8c-0.5,0-1-0.3-1.6-0.8s-1.2-1.2-1.6-2.1c-0.4-0.8-0.7-1.7-0.7-2.5c0-1.4,0.3-2.5,0.8-3.4s1.1-1.4,1.7-1.7
		c0.6-0.3,1.1-0.5,1.5-0.5l0.7,0V23.6z M63.7,18.1c0,1-0.2,2-0.6,2.8c-0.4,0.8-0.9,1.5-1.6,2s-1.2,0.7-1.8,0.7h-0.8V12.7l0.7,0
		c0.3,0,0.7,0.1,1.2,0.2c0.5,0.1,0.9,0.4,1.4,0.8c0.5,0.4,0.8,0.9,1.1,1.7C63.6,16.1,63.7,17,63.7,18.1z"/>
	<path d="M77.9,13.9h-1.8v9.7h-4.3v-9.7h-1.4l5.7-5.7v4.5h1.8V13.9z"/>
	<path d="M83.6,23.6h-4.3V12.7h4.3V23.6z M88.3,14.7c0,0.4-0.1,0.7-0.3,1c-0.2,0.3-0.4,0.6-0.7,0.8s-0.7,0.3-1.1,0.3
		c-0.4,0-0.8-0.1-1.1-0.3c-0.3-0.2-0.6-0.5-0.7-0.8s-0.3-0.7-0.3-1.1c0-0.7,0.2-1.2,0.6-1.6c0.4-0.4,0.9-0.5,1.6-0.5
		c0.2,0,0.4,0.1,0.7,0.2c0.3,0.1,0.6,0.3,0.9,0.7S88.3,14.1,88.3,14.7z"/>
	<path d="M94,23.6h-0.8c-0.5,0-1-0.3-1.6-0.8s-1.2-1.2-1.6-2.1c-0.4-0.8-0.7-1.7-0.7-2.5c0-1.4,0.3-2.5,0.8-3.4s1.1-1.4,1.7-1.7
		c0.6-0.3,1.1-0.5,1.5-0.5l0.7,0V23.6z M99.8,18.1c0,1-0.2,2-0.6,2.8c-0.4,0.8-0.9,1.5-1.6,2s-1.2,0.7-1.8,0.7H95V12.7l0.7,0
		c0.3,0,0.7,0.1,1.2,0.2c0.5,0.1,0.9,0.4,1.4,0.8c0.5,0.4,0.8,0.9,1.1,1.7C99.7,16.1,99.8,17,99.8,18.1z"/>
	<path d="M105.8,23.6h-4.4v-11h4.4V23.6z M111.2,23.6h-4.4v-11h1.4c0.2,0,0.5,0.1,0.9,0.2c0.3,0.1,0.7,0.3,1,0.6s0.6,0.6,0.8,0.9
		c0.2,0.4,0.3,0.8,0.3,1.3V23.6z"/>
	<path d="M117.7,9.9c0,1.3-0.8,1.9-2.3,1.9c-0.8,0-1.3-0.2-1.7-0.6s-0.6-0.8-0.6-1.4c0-0.2,0.1-0.5,0.2-0.8c0.2-0.3,0.4-0.5,0.8-0.7
		s0.8-0.3,1.3-0.3c0.4,0,0.8,0.1,1.2,0.2c0.4,0.1,0.6,0.4,0.9,0.6S117.7,9.5,117.7,9.9z M117.4,23.6H113V12.7h4.4V23.6z"/>
	<path d="M128.8,21.8c-0.7,0.8-1.4,1.3-2.2,1.6c-0.8,0.3-1.5,0.4-2.1,0.4c-0.7,0-1.4-0.2-2.3-0.5c-0.9-0.3-1.6-0.9-2.3-1.8
		c-0.7-0.8-1-1.9-1-3.3c0-0.9,0.1-1.7,0.4-2.4c0.3-0.7,0.6-1.3,1-1.7c0.4-0.4,0.9-0.8,1.4-1s1-0.3,1.4-0.3h0.8v9.8
		c0,0,0.1,0.1,0.1,0.1c0,0,0.1,0.1,0.1,0.1c0.1,0,0.2,0,0.3,0c1,0,1.8-0.2,2.6-0.7c0.7-0.5,1.3-1.1,1.7-1.9V21.8z M128.8,17.5
		l-4.3-4.8h4.3V17.5z"/>
</g>
<g>
	<line x1="4.1" y1="2.2" x2="128.4" y2="2.2"/>
	<rect x="4.1" y="1.7" width="124.3" height="1"/>
</g>
<g>
	<rect x="4.1" y="30.6" width="124.3" height="1"/>
</g>
<g>
	<line x1="65.3" y1="31.1" x2="65.3" y2="2.2"/>
	<rect x="64.8" y="2.2" width="1" height="28.9"/>
</g>
</svg>
