<?xml version="1.0" encoding="utf-8"?>
<!-- Generator: Adobe Illustrator 28.1.0, SVG Export Plug-In . SVG Version: 6.00 Build 0)  -->
<svg version="1.1" id="Livello_1" xmlns="http://www.w3.org/2000/svg" xmlns:xlink="http://www.w3.org/1999/xlink" x="0px" y="0px"
	 viewBox="0 0 2154.3 907.1" style="enable-background:new 0 0 2154.3 907.1;" xml:space="preserve">
<style type="text/css">
	.st0{fill:none;stroke:#484947;stroke-width:1.9354;}
	.st1{fill:none;stroke:#B7B8B7;stroke-width:1.9354;}
	.st2{fill:none;stroke:#909090;stroke-width:1.9354;}
	.st3{fill:none;stroke:#E69093;stroke-width:1.9354;}
	.st4{fill:none;stroke:#808080;stroke-width:1.9354;}
	.st5{fill:#6F716E;fill-opacity:0.996;}
	.st6{fill:#212121;}
	.st7{fill:#FFFFFF;}
	.st8{fill:#CD2027;}
</style>
<g>
	<g>
		<path vector-effect="non-scaling-stroke" class="st0" d="M1077.6,453.7c-0.8-2.6-1-5.3-0.6-8.1c0.1-0.4-0.3-0.8-0.7-0.9
			c0,0-0.1,0-0.1,0c-300.9,0-601.9,0-902.8,0c-12.9,0-23.1,1.3-34.7,4.3"/>
		<path vector-effect="non-scaling-stroke" class="st1" d="M138.7,449l-0.1-0.7"/>
		<path vector-effect="non-scaling-stroke" class="st2" d="M1077.6,758.3c-0.8,2.5-1.1,5-1.1,7.6c0.1,7.2-2.1,14.4-3.6,21.4
			c-3.7,16.7-10.6,30.6-21.4,44.1c-15.4,19.3-34,34.6-55.9,45.7c-10.7,5.5-22.4,9.2-35.2,11.1"/>
		<path vector-effect="non-scaling-stroke" class="st2" d="M31.6,575.8c0,0.4,0.1,0.7,0.3,1c0.2,0.4,0.4,0.4,0.4-0.1
			c0.9-14.3,5.7-28.3,11.8-41.8c15.9-35,42.3-64.2,77.7-79.7c0.2-0.1,0.2-0.2,0.3-0.4c0-0.1,0-0.2,0-0.3"/>
		<path vector-effect="non-scaling-stroke" class="st2" d="M122.1,454.1c0.6,0.5,14.9-4.5,16.7-5.1"/>
		<path vector-effect="non-scaling-stroke" class="st2" d="M86.1,498.5c-21.5,23.1-40.2,57.6-40.2,89.9c-0.1,95-0.1,190.1,0,285.2
			c0,0.3,0.2,0.5,0.5,0.5c298.7,0.1,597.5,0.2,896.2,0c0,0,2,0,5.8,0.1c38.9,0.5,83.9-33.9,101-67c9.3-18,13.7-37,13.4-57
			c-0.1-4.9-0.1-7.4-0.1-7.5c0-91.5,0-183,0-274.6c0-2.2,0.4-6.1,0-9.3c0-0.3-0.2-0.5-0.6-0.5c-292.7,0-585.4,0-878.1,0
			C145,458.2,112.7,469.9,86.1,498.5"/>
		<path vector-effect="non-scaling-stroke" class="st3" d="M621,538.8c0-35.1-28.4-63.5-63.5-63.5c-35.1,0-63.5,28.4-63.5,63.5l0,0
			c0,35.1,28.4,63.5,63.5,63.5l0,0C592.6,602.3,621,573.8,621,538.8"/>
		<path vector-effect="non-scaling-stroke" class="st4" d="M925.1,579.1c0-16.7-13.5-30.2-30.2-30.2l0,0
			c-16.7,0-30.2,13.5-30.2,30.2s13.5,30.2,30.2,30.2S925.1,595.8,925.1,579.1C925.1,579.1,925.1,579.1,925.1,579.1"/>
		<path vector-effect="non-scaling-stroke" class="st4" d="M784.4,614.3l-10.8-0.1c-0.3,0-0.5,0.2-0.5,0.5l-0.1,32.1
			c0,0.4,0.2,0.6,0.6,0.6h10.8c0.3,0,0.5,0.2,0.5,0.5c0,47.1,0.1,94.2,0.3,141.2c0,10.7,0.4,19.1,1,25c1.5,14.7,11.5,27.5,26.7,29.3
			c14,1.7,28.8,1.4,44.1,1.1c0.3,0,0.4-0.1,0.4-0.4l0-33.3c0-0.3-0.1-0.4-0.4-0.4c-4.4,0.2-8.7-0.2-12.9-1.2
			c-0.8-0.2-1.5-0.8-1.8-1.6c-0.5-1.4-0.8-3.1-0.9-5c-0.6-8.5-0.9-17-0.9-25.6c-0.1-43-0.2-86.1-0.1-129.1c0-0.3,0.2-0.5,0.5-0.5
			H856c0.6,0,1-0.4,1-1c0,0,0,0,0,0v-31.5c0-0.4-0.2-0.6-0.6-0.6l-15.7,0c-0.4,0-0.6-0.2-0.6-0.6v-51.9c0-0.5-0.2-0.7-0.7-0.7
			l-53.9,0.1c-0.4,0-0.6,0.2-0.6,0.6v52.1C784.9,614.2,784.8,614.3,784.4,614.3"/>
		<path vector-effect="non-scaling-stroke" class="st4" d="M238.2,574.1c-14.9-12.2-30-12.2-48.2-12.1c-25,0.1-50.1,0.1-75.1,0
			c-0.4,0-0.5,0.2-0.5,0.5v281.6c0,0.3,0.2,0.5,0.5,0.5H173c0.4,0,0.7-0.3,0.7-0.7l0.1-94.1c0-0.4,0.3-0.8,0.8-0.8
			c10.2,0,20.5,0,30.9,0c7.5,0,14.8-0.5,21.1-2.4c24-7.1,27.8-35.1,27.9-55.9c0.1-28,1.7-56.9-1.5-84.4
			C251.6,595.2,247.2,581.5,238.2,574.1"/>
		<path vector-effect="non-scaling-stroke" class="st4" d="M476.6,844.6C476.7,844.6,476.7,844.6,476.6,844.6L476.6,844.6l0.1-282
			c0-0.4-0.2-0.6-0.6-0.6h-57c-0.4,0-0.6,0.2-0.6,0.6c0.1,47.2,0.1,94.5,0,141.7c-0.1,17.1,0.3,35.1-0.1,52.7c0,0.3,0,0.5,0.1,0.7
			c0.1,0.1,0.1,0.3,0.1,0.5c0,28.7,0,57.3,0,85.9c0,0.2,0.2,0.4,0.5,0.4L476.6,844.6"/>
		<path vector-effect="non-scaling-stroke" class="st4" d="M995.2,562.3c0-0.1-0.1-0.3-0.3-0.3l0,0h-57.5c-0.1,0-0.3,0.1-0.3,0.3
			c0,0,0,0,0,0v282.1c0,0.1,0.1,0.3,0.3,0.3l0,0h57.5c0.1,0,0.3-0.1,0.3-0.3c0,0,0,0,0,0V562.3"/>
		<path vector-effect="non-scaling-stroke" class="st4" d="M285,833c9.7,8.2,18.4,12.2,31,13.1c9.6,0.7,19.3,0.7,28.9,0.5
			c12.5-0.3,21.6-0.3,31-4.8c12.5-5.8,25.7-18.3,28.7-32.8c2.9-14.2,4.5-28.2,4.9-41.9c0.7-31.3,0.6-62.6-0.3-93.9
			c-0.6-19.8-8.5-41.7-24.1-54.8c-10.7-8.9-25.4-10.2-38.8-10.3c-23.4-0.2-52-1.4-65.9,21.2c-10.8,17.7-12.4,34.9-12.5,55
			c-0.1,20.9-0.1,47.9,0,81c0,16.9,2.1,29.4,4.8,44C274.9,820.8,276.8,826,285,833"/>
		<path vector-effect="non-scaling-stroke" class="st4" d="M634.4,686.2c0.7,15.8,9.2,23.3,21.2,31.5c15.9,10.8,30.1,19.9,42.5,27.4
			c3.2,1.9,8.5,5.2,9.6,9c3,10.2,1.3,26.7,0.6,40.2c-0.3,7-3.5,10.7-9.5,11c-4.9,0.3-7.9-2.1-8.9-6.8c-2.5-11.9-1.7-25.1-1.6-37.2
			c0-0.3-0.2-0.5-0.5-0.5c0,0,0,0,0,0l-51.3,0.2c-0.3,0-0.4,0.1-0.4,0.4c-0.1,11.6-0.1,23.3,0.1,34.9c0.2,14.8,5.3,26.9,15.5,37
			c9,8.9,18.6,13.4,31.1,13.4c15.7,0,27.2,0,34.6,0c8.5,0,15.9-0.9,22.3-5.3c9.5-6.6,19.7-19.7,22-32c2.6-14.2,2.1-32.8,1.6-48.8
			c-0.4-11.4-1.9-22.8-10.4-30.9c-1.7-1.6-6.7-4.9-15.1-9.9c-13.9-8.2-28.3-16.1-41.5-25.3c-5.3-3.7-8.1-6.8-8.1-13.1
			c0-8-3.3-33,8.5-35.1c8-1.4,12.3,1.8,13,9.7c0.9,10.2,1.2,20.4,0.9,30.7c0,0.4,0.2,0.5,0.5,0.5h47.4c0.4,0,0.5-0.2,0.5-0.5
			c0-5.3-0.2-14.9-0.5-29c-0.3-13.6-4.7-33-16.9-40.6c-6.9-4.3-14.5-6.9-23.1-7.6c-14.4-1.3-28.8-1.3-43.2,0.1
			c-9.2,0.9-17.6,4-25.1,9.4c-12.6,9-14.6,22.5-15.5,37.1C634.2,666.8,634,676.8,634.4,686.2"/>
		<path vector-effect="non-scaling-stroke" class="st3" d="M492.7,760.4h54.4c0.8,0,1.1-0.4,1.1-1.1c-0.2-28-0.2-55.9-0.1-83.8
			c0-5.1,2.1-7.8,7.4-8.2c8.1-0.6,9,5.6,9,12.3c0,55.2,0,110.5,0,165.8c0,0.3,0.2,0.5,0.5,0.5h55.6c0.2,0,0.4-0.2,0.4-0.4l0,0
			c-0.2-56.9-0.2-113.9-0.1-170.8c0-23.7-9.8-47.2-31.2-58.8c-12.9-7-28-7.8-42.4-6.6c-34.1,3-50.4,30.9-54.8,61.6
			c-0.6,4.3-0.9,10.7-0.9,19.3c0,22.8,0,45.8,0,69.1C491.7,759.9,492.1,760.4,492.7,760.4L492.7,760.4"/>
		<path vector-effect="non-scaling-stroke" class="st4" d="M923.8,615.3c0-0.1-0.1-0.3-0.3-0.3l0,0h-57.3c-0.1,0-0.3,0.1-0.3,0.3
			l0,0v229.1c0,0.1,0.1,0.3,0.3,0.3h57.3c0.1,0,0.3-0.1,0.3-0.3V615.3"/>
		<path vector-effect="non-scaling-stroke" class="st4" d="M173.8,604.1v103.6c0,0.5,0.4,0.9,0.9,0.9l0,0h4.8
			c7.9,0,14.3-6.8,14.3-15.3v-74.9c0-8.4-6.4-15.3-14.3-15.3h-4.8C174.2,603.1,173.8,603.6,173.8,604.1L173.8,604.1"/>
		<path vector-effect="non-scaling-stroke" class="st4" d="M332.5,804c4.9,3.3,15,2.1,16.5-5.2c0.5-2.4,0.8-5.8,0.8-10.1
			c0-38.6,0-77.3,0-115.9c0-3.1-0.1-5.8-0.2-8.1c-0.4-7.3-0.3-14.5-9.2-15.3c-12.7-1.1-12.1,10.2-12.1,18.7c0,41.3,0,82.5,0,123.8
			C328.2,796.7,328.8,801.5,332.5,804"/>
		<path vector-effect="non-scaling-stroke" class="st2" d="M966.8,887.9l-5.4,0.2"/>
	</g>
	<path class="st5" d="M165.4,444h2.7c1.5,0.4,3.1,0.4,4.6,0h905v9.7c-0.8-2.6-1-5.3-0.6-8.1c0.1-0.4-0.3-0.8-0.7-0.9
		c0,0-0.1,0-0.1,0c-300.9,0-601.9,0-902.8,0c-12.9,0-23.1,1.3-34.7,4.3l-0.1-0.7c1.3-1.2,2.9-1.7,4.8-1.4c0.3,0.1,0.6,0,0.9-0.2
		c1.6-1.1,3.3-0.8,4.8-1.1C154.5,444.6,159.9,444,165.4,444z"/>
	<path class="st6" d="M1077.6,453.7v304.6c-0.8,2.5-1.1,5-1.1,7.6c0.1,7.2-2.1,14.4-3.6,21.4c-3.7,16.7-10.6,30.6-21.4,44.1
		c-15.4,19.3-34,34.6-55.9,45.7c-10.7,5.5-22.4,9.2-35.2,11.1H31.6V575.8c0,0.4,0.1,0.7,0.3,1c0.2,0.4,0.4,0.4,0.4-0.1
		c0.9-14.3,5.7-28.3,11.8-41.8c15.9-35,42.3-64.2,77.7-79.7c0.2-0.1,0.2-0.2,0.3-0.4c0-0.1,0-0.2,0-0.3l0.1-0.5
		c0.6,0.5,14.9-4.5,16.7-5.1c11.6-3,21.9-4.3,34.7-4.3c300.9,0,601.8,0,902.8,0c0.4,0,0.8,0.4,0.8,0.8c0,0,0,0.1,0,0.1
		C1076.7,448.4,1076.9,451.1,1077.6,453.7z M86.1,498.5c-21.5,23.1-40.2,57.6-40.2,89.9c-0.1,95-0.1,190.1,0,285.2
		c0,0.3,0.2,0.5,0.5,0.5c298.7,0.1,597.5,0.2,896.2,0c0,0,2,0,5.8,0.1c38.9,0.5,83.9-33.9,101-67c9.3-18,13.7-37,13.4-57
		c-0.1-4.9-0.1-7.4-0.1-7.5c0-91.5,0-183,0-274.6c0-2.2,0.4-6.1,0-9.3c0-0.3-0.2-0.5-0.6-0.5c-292.7,0-585.4,0-878.1,0
		C145,458.2,112.7,469.9,86.1,498.5z"/>
	<path class="st7" d="M45.9,588.4c0-32.3,18.7-66.9,40.2-89.9c26.6-28.5,59-40.2,98-40.2c292.7,0,585.4,0,878.1,0
		c0.3,0,0.5,0.2,0.6,0.5c0.3,3.2,0,7.1,0,9.3c0,91.5,0,183,0,274.6c0,0.1,0,2.6,0.1,7.5c0.3,20-4.2,39-13.4,57
		c-17,33.1-62.1,67.4-101,67c-3.8,0-5.8-0.1-5.8-0.1c-298.7,0.3-597.5,0.1-896.2,0c-0.3,0-0.5-0.2-0.5-0.5
		C45.8,778.5,45.8,683.4,45.9,588.4z M621,538.8c0-35.1-28.4-63.5-63.5-63.5c-35.1,0-63.5,28.4-63.5,63.5l0,0
		c0,35.1,28.4,63.5,63.5,63.5l0,0C592.6,602.3,621,573.8,621,538.8z M925.1,579.1c0-16.7-13.5-30.2-30.2-30.2l0,0
		c-16.7,0-30.2,13.5-30.2,30.2s13.5,30.2,30.2,30.2S925.1,595.8,925.1,579.1C925.1,579.1,925.1,579.1,925.1,579.1z M784.4,614.3
		l-10.8-0.1c-0.3,0-0.5,0.2-0.5,0.5l-0.1,32.1c0,0.4,0.2,0.6,0.6,0.6h10.8c0.3,0,0.5,0.2,0.5,0.5c0,47.1,0.1,94.2,0.3,141.2
		c0,10.7,0.4,19.1,1,25c1.5,14.7,11.5,27.5,26.7,29.3c14,1.7,28.8,1.4,44.1,1.1c0.3,0,0.4-0.1,0.4-0.4l0-33.3c0-0.3-0.1-0.4-0.4-0.4
		c-4.4,0.2-8.7-0.2-12.9-1.2c-0.8-0.2-1.5-0.8-1.8-1.6c-0.5-1.4-0.8-3.1-0.9-5c-0.6-8.5-0.9-17-0.9-25.6c-0.1-43-0.2-86.1-0.1-129.1
		c0-0.3,0.2-0.5,0.5-0.5H856c0.6,0,1-0.4,1-1c0,0,0,0,0,0v-31.5c0-0.4-0.2-0.6-0.6-0.6l-15.7,0c-0.4,0-0.6-0.2-0.6-0.6v-51.9
		c0-0.5-0.2-0.7-0.7-0.7l-53.9,0.1c-0.4,0-0.6,0.2-0.6,0.6v52.1C784.9,614.2,784.8,614.3,784.4,614.3z M238.2,574.1
		c-14.9-12.2-30-12.2-48.2-12.1c-25,0.1-50.1,0.1-75.1,0c-0.4,0-0.5,0.2-0.5,0.5v281.6c0,0.3,0.2,0.5,0.5,0.5H173
		c0.4,0,0.7-0.3,0.7-0.7l0.1-94.1c0-0.4,0.3-0.8,0.8-0.8c10.2,0,20.5,0,30.9,0c7.5,0,14.8-0.5,21.1-2.4c24-7.1,27.8-35.1,27.9-55.9
		c0.1-28,1.7-56.9-1.5-84.4C251.6,595.2,247.2,581.5,238.2,574.1z M476.6,844.6C476.7,844.6,476.7,844.6,476.6,844.6L476.6,844.6
		l0.1-282c0-0.4-0.2-0.6-0.6-0.6h-57c-0.4,0-0.6,0.2-0.6,0.6c0.1,47.2,0.1,94.5,0,141.7c-0.1,17.1,0.3,35.1-0.1,52.7
		c0,0.3,0,0.5,0.1,0.7c0.1,0.1,0.1,0.3,0.1,0.5c0,28.7,0,57.3,0,85.9c0,0.2,0.2,0.4,0.5,0.4L476.6,844.6z M995.2,562.3
		c0-0.1-0.1-0.3-0.3-0.3l0,0h-57.5c-0.1,0-0.3,0.1-0.3,0.3c0,0,0,0,0,0v282.1c0,0.1,0.1,0.3,0.3,0.3l0,0h57.5c0.1,0,0.3-0.1,0.3-0.3
		c0,0,0,0,0,0V562.3z M285,833c9.7,8.2,18.4,12.2,31,13.1c9.6,0.7,19.3,0.7,28.9,0.5c12.5-0.3,21.6-0.3,31-4.8
		c12.5-5.8,25.7-18.3,28.7-32.8c2.9-14.2,4.5-28.2,4.9-41.9c0.7-31.3,0.6-62.6-0.3-93.9c-0.6-19.8-8.5-41.7-24.1-54.8
		c-10.7-8.9-25.4-10.2-38.8-10.3c-23.4-0.2-52-1.4-65.9,21.2c-10.8,17.7-12.4,34.9-12.5,55c-0.1,20.9-0.1,47.9,0,81
		c0,16.9,2.1,29.4,4.8,44C274.9,820.8,276.8,826,285,833z M634.4,686.2c0.7,15.8,9.2,23.3,21.2,31.5c15.9,10.8,30.1,19.9,42.5,27.4
		c3.2,1.9,8.5,5.2,9.6,9c3,10.2,1.3,26.7,0.6,40.2c-0.3,7-3.5,10.7-9.5,11c-4.9,0.3-7.9-2.1-8.9-6.8c-2.5-11.9-1.7-25.1-1.6-37.2
		c0-0.3-0.2-0.5-0.5-0.5c0,0,0,0,0,0l-51.3,0.2c-0.3,0-0.4,0.1-0.4,0.4c-0.1,11.6-0.1,23.3,0.1,34.9c0.2,14.8,5.3,26.9,15.5,37
		c9,8.9,18.6,13.4,31.1,13.4c15.7,0,27.2,0,34.6,0c8.5,0,15.9-0.9,22.3-5.3c9.5-6.6,19.7-19.7,22-32c2.6-14.2,2.1-32.8,1.6-48.8
		c-0.4-11.4-1.9-22.8-10.4-30.9c-1.7-1.6-6.7-4.9-15.1-9.9c-13.9-8.2-28.3-16.1-41.5-25.3c-5.3-3.7-8.1-6.8-8.1-13.1
		c0-8-3.3-33,8.5-35.1c8-1.4,12.3,1.8,13,9.7c0.9,10.2,1.2,20.4,0.9,30.7c0,0.4,0.2,0.5,0.5,0.5h47.4c0.4,0,0.5-0.2,0.5-0.5
		c0-5.3-0.2-14.9-0.5-29c-0.3-13.6-4.7-33-16.9-40.6c-6.9-4.3-14.5-6.9-23.1-7.6c-14.4-1.3-28.8-1.3-43.2,0.1
		c-9.2,0.9-17.6,4-25.1,9.4c-12.6,9-14.6,22.5-15.5,37.1C634.2,666.8,634,676.8,634.4,686.2z M492.7,760.4h54.4
		c0.8,0,1.1-0.4,1.1-1.1c-0.2-28-0.2-55.9-0.1-83.8c0-5.1,2.1-7.8,7.4-8.2c8.1-0.6,9,5.6,9,12.3c0,55.2,0,110.5,0,165.8
		c0,0.3,0.2,0.5,0.5,0.5h55.6c0.2,0,0.4-0.2,0.4-0.4l0,0c-0.2-56.9-0.2-113.9-0.1-170.8c0-23.7-9.8-47.2-31.2-58.8
		c-12.9-7-28-7.8-42.4-6.6c-34.1,3-50.4,30.9-54.8,61.6c-0.6,4.3-0.9,10.7-0.9,19.3c0,22.8,0,45.8,0,69.1
		C491.7,759.9,492.1,760.4,492.7,760.4L492.7,760.4z M923.8,615.3c0-0.1-0.1-0.3-0.3-0.3l0,0h-57.3c-0.1,0-0.3,0.1-0.3,0.3l0,0
		v229.1c0,0.1,0.1,0.3,0.3,0.3h57.3c0.1,0,0.3-0.1,0.3-0.3V615.3z"/>
	<circle class="st8" cx="557.5" cy="538.8" r="63.5"/>
	<circle cx="894.9" cy="579.1" r="30.2"/>
	<path d="M784.9,613.8v-52.1c0-0.4,0.2-0.6,0.6-0.6l53.9-0.1c0.5,0,0.7,0.2,0.7,0.7v51.9c0,0.4,0.2,0.6,0.6,0.6l15.7,0
		c0.4,0,0.6,0.2,0.6,0.6v31.5c0,0.6-0.4,1-1,1l0,0h-15.4c-0.3,0-0.5,0.2-0.5,0.5c0,43.1,0,86.1,0.1,129.1c0,8.5,0.3,17.1,0.9,25.6
		c0.1,1.9,0.4,3.5,0.9,5c0.3,0.8,1,1.4,1.8,1.6c4.3,1,8.6,1.4,12.9,1.2c0.3,0,0.4,0.1,0.4,0.4l0,33.3c0,0.3-0.1,0.4-0.4,0.4
		c-15.3,0.2-30.1,0.6-44.1-1.1c-15.1-1.8-25.2-14.6-26.7-29.3c-0.6-5.9-0.9-14.2-1-25c-0.2-47.1-0.3-94.2-0.3-141.2
		c0-0.3-0.2-0.5-0.5-0.5h-10.8c-0.4,0-0.6-0.2-0.6-0.6l0.1-32.1c0-0.3,0.2-0.5,0.5-0.5l10.8,0.1
		C784.8,614.3,784.9,614.2,784.9,613.8z"/>
	<path d="M238.2,574.1c9,7.4,13.4,21.1,14.7,32.2c3.2,27.5,1.6,56.4,1.5,84.4c-0.1,20.7-3.9,48.8-27.9,55.9
		c-6.3,1.9-13.6,2.4-21.1,2.4c-10.4,0-20.7,0-30.9,0c-0.4,0-0.8,0.3-0.8,0.8l-0.1,94.1c0,0.4-0.3,0.7-0.7,0.7h-58.2
		c-0.3,0-0.5-0.2-0.5-0.5V562.6c0-0.4,0.2-0.5,0.5-0.5c25,0,50.1,0,75.1,0C208.2,561.9,223.3,561.9,238.2,574.1z M173.8,604.1v103.6
		c0,0.5,0.4,0.9,0.9,0.9l0,0h4.8c7.9,0,14.3-6.8,14.3-15.3v-74.9c0-8.4-6.4-15.3-14.3-15.3h-4.8
		C174.2,603.1,173.8,603.6,173.8,604.1L173.8,604.1z"/>
	<path d="M476.6,844.6l-57.5,0c-0.3,0-0.5-0.2-0.5-0.4c0-28.6,0-57.2,0-85.9c0-0.2,0-0.3-0.1-0.5c-0.1-0.2-0.1-0.5-0.1-0.7
		c0.4-17.6,0.1-35.6,0.1-52.7c0.2-47.2,0.2-94.5,0-141.7c0-0.4,0.2-0.6,0.6-0.6h57c0.4,0,0.6,0.2,0.6,0.6L476.6,844.6
		C476.7,844.6,476.7,844.6,476.6,844.6L476.6,844.6z"/>
	<path d="M937.4,562h57.5c0.1,0,0.3,0.1,0.3,0.3v282.1c0,0.1-0.1,0.3-0.3,0.3h-57.5c-0.1,0-0.3-0.1-0.3-0.3V562.3
		C937.1,562.1,937.2,562,937.4,562z"/>
	<path class="st7" d="M173.8,584.7c0-0.5,0.4-0.9,0.9-0.9l0,0h4.8c7.9,0,14.3,6.8,14.3,15.3V674c0,8.4-6.4,15.3-14.3,15.3h-4.8
		c-0.5,0-0.9-0.4-0.9-0.9l0,0V584.7z"/>
	<path d="M285,833c-8.3-7-10.2-12.3-12.3-23.6c-2.7-14.6-4.7-27.1-4.8-44c-0.1-33.1-0.1-60.1,0-81c0.1-20.2,1.6-37.4,12.5-55
		c13.9-22.6,42.5-21.4,65.9-21.2c13.4,0.1,28.1,1.4,38.8,10.3c15.6,13,23.5,35,24.1,54.8c1,31.3,1.1,62.6,0.3,93.9
		c-0.3,13.7-1.9,27.7-4.9,41.9c-3,14.5-16.2,27-28.7,32.8c-9.4,4.4-18.5,4.5-31,4.8c-9.6,0.2-19.3,0.3-28.9-0.5
		C303.4,845.2,294.7,841.2,285,833z M332.5,804c4.9,3.3,15,2.1,16.5-5.2c0.5-2.4,0.8-5.8,0.8-10.1c0-38.6,0-77.3,0-115.9
		c0-3.1-0.1-5.8-0.2-8.1c-0.4-7.3-0.3-14.5-9.2-15.3c-12.7-1.1-12.1,10.2-12.1,18.7c0,41.3,0,82.5,0,123.8
		C328.2,796.7,328.8,801.5,332.5,804z"/>
	<path d="M655.7,717.6c-12-8.2-20.6-15.7-21.2-31.5c-0.4-9.4-0.3-19.4,0.4-30.1c0.9-14.5,2.9-28,15.5-37.1
		c7.5-5.4,15.9-8.5,25.1-9.4c14.4-1.4,28.8-1.4,43.2-0.1c8.5,0.8,16.2,3.3,23.1,7.6c12.2,7.7,16.6,27,16.9,40.6
		c0.3,14.1,0.5,23.8,0.5,29c0,0.4-0.2,0.5-0.5,0.5h-47.4c-0.4,0-0.5-0.2-0.5-0.5c0.3-10.3-0.1-20.5-0.9-30.7c-0.7-7.9-5-11.2-13-9.7
		c-11.8,2.1-8.5,27.1-8.5,35.1c0,6.3,2.8,9.4,8.1,13.1c13.3,9.2,27.7,17.1,41.5,25.3c8.4,5,13.4,8.3,15.1,9.9
		c8.5,8.1,9.9,19.5,10.4,30.9c0.6,15.9,1.1,34.5-1.6,48.8c-2.3,12.3-12.5,25.4-22,32c-6.4,4.4-13.7,5.3-22.3,5.3
		c-7.4,0-18.9,0-34.6,0c-12.5,0-22.1-4.5-31.1-13.4c-10.2-10.1-15.2-22.2-15.5-37c-0.2-11.6-0.2-23.3-0.1-34.9
		c0-0.3,0.1-0.4,0.4-0.4l51.3-0.2c0.3,0,0.5,0.2,0.5,0.5c0,0,0,0,0,0c-0.1,12.1-0.9,25.3,1.6,37.2c1,4.7,4,7.2,8.9,6.8
		c6-0.4,9.1-4.1,9.5-11c0.7-13.5,2.4-29.9-0.6-40.2c-1.1-3.8-6.4-7.1-9.6-9C685.7,737.5,671.6,728.4,655.7,717.6z"/>
	<path class="st8" d="M492.7,760.4c-0.6,0-1-0.5-1-1l0,0c0-23.3,0-46.4,0-69.1c0-8.6,0.3-15,0.9-19.3c4.4-30.8,20.7-58.6,54.8-61.6
		c14.3-1.3,29.4-0.5,42.4,6.6c21.4,11.6,31.2,35,31.2,58.8c-0.1,57,0,113.9,0.1,170.8c0,0.2-0.2,0.4-0.4,0.4l0,0H565
		c-0.3,0-0.5-0.2-0.5-0.5c0-55.3,0-110.5,0-165.8c0-6.7-0.9-12.8-9-12.3c-5.2,0.4-7.3,3-7.4,8.2c-0.2,27.9-0.1,55.9,0.1,83.8
		c0,0.8-0.4,1.1-1.1,1.1H492.7z"/>
	<path d="M866.2,615h57.3c0.1,0,0.3,0.1,0.3,0.3v229.1c0,0.1-0.1,0.3-0.3,0.3h-57.3c-0.1,0-0.3-0.1-0.3-0.3V615.3
		C866,615.1,866.1,615,866.2,615z"/>
	<path class="st7" d="M332.5,804c-3.7-2.5-4.3-7.3-4.3-12.1c0-41.3,0-82.5,0-123.8c0-8.5-0.6-19.8,12.1-18.7c8.9,0.8,8.8,8,9.2,15.3
		c0.1,2.3,0.2,5,0.2,8.1c0,38.6,0,77.3,0,115.9c0,4.3-0.3,7.7-0.8,10.1C347.4,806.1,337.4,807.4,332.5,804z"/>
	<path class="st6" d="M966.8,887.9c0,0.1,0,0.1-0.1,0.2h-5.3L966.8,887.9z"/>
</g>
<g>
	<path d="M112,76l29.9,188.4L172.2,76h80l-65.9,288.2H97.4L31.6,76H112z"/>
	<path d="M260.3,76h80.4v288.2h-80.4V76z"/>
	<path d="M428.9,76c46.9,0,78.4,4.4,107.1,35.2c20.6,22.6,31.9,59.4,31.9,109.1c0,95.4-41.2,143.9-121.3,143.9h-77.6V76H428.9z
		 M449.5,291.4c1.2,0,2.4,0,3.6,0c26.7,0,33.5-22.6,33.5-72.8c0-50.5-6.5-73.6-34.4-73.6c-0.8,0-2,0-2.8,0V291.4z"/>
	<path d="M581.7,76h143.1v69.9h-62.2v36.8h56.2v67.5h-56.2v39.6h62.2v74.4H581.7V76z"/>
	<path d="M843.2,70.3c67.5,0,107.5,53.4,107.5,150c0,96.6-40,149.6-107.5,149.6c-67.5,0-107.9-53-107.9-149.6
		C735.3,123.7,775.7,70.3,843.2,70.3z M843.2,296.3c21.8,0,26.3-24.3,26.3-78c0-53.4-4.4-78-26.3-78s-26.7,24.7-26.7,78
		C816.5,272,821.4,296.3,843.2,296.3z"/>
	<path d="M1266,221.9c0,99.8-31.9,147.9-101.1,147.9c-67.5,0-107.9-53-107.9-149.6c0-97,40-150,109.5-150c50.1,0,80,22.2,95.8,70.3
		l-69.9,23.8c-6.1-19.4-13.7-28.3-27.1-28.3c-22.2,0-27.1,25.9-27.1,80.4c0,54.6,4.9,79.6,26.7,79.6c15,0,22.2-12.5,22.2-37.6
		c0-1.2,0-2.8,0-4h-23.8V196h101.9C1265.6,204.9,1266,213.4,1266,221.9z"/>
	<path d="M1331.1,76h90.5l63.1,288.2h-78.4l-6.1-42.4h-47.7l-6.1,42.4H1268L1331.1,76z M1392.5,263.5l-16.2-106.7l-15.8,106.7
		H1392.5z"/>
	<path d="M1508.1,76h95.8l25.1,152L1654,76h95.8l20.6,288.2h-73.6l-6.1-204.1l-31.9,204.1h-59.8l-31.9-204.1l-6.5,204.1h-73.2
		L1508.1,76z"/>
	<path d="M1793.5,76h143.1v69.9h-62.2v36.8h56.2v67.5h-56.2v39.6h62.2v74.4h-143.1V76z"/>
	<path d="M2011.8,296.3c13.3,0,22.2-8.9,22.2-20.2c0-10.5-8.9-18.6-21.8-30.7c-34-31.5-56.6-53.8-56.6-91.4
		c0-48.1,36-83.7,88.5-83.7c20.2,0,42,5.7,65.1,16.6v74.8c-19.4-15.4-36.4-23-50.1-23c-12.5,0-20.2,7.3-20.2,17.4
		c0,11.7,9.7,18.6,23,29.1c36.4,29.1,57.4,48.9,57.4,91.3c0,56.2-38.4,93.4-97.4,93.4c-23,0-44.5-7.3-67.1-21.8v-79.6
		C1978.6,287.4,1998,296.3,2011.8,296.3z"/>
</g>
</svg>
